<svg xmlns="http://www.w3.org/2000/svg" viewBox="0 0 750 500"><g id="freepik--background-complete--inject-204"><path d="M181.94,133.08l-89.85-.14s4.48-5.81,9.41-6.53c0,0,9.62-28.5,25.66-28.68C142.06,97.57,148,115.3,148,115.3s6.92-7.94,13.52-4.29,10.31,14.06,10.31,14.06S179.26,129.08,181.94,133.08Z" style="fill:#ebebeb"></path><path d="M571.66,208l113.62.18s0-7.26-15.64-8.71c0,0-14.25-31.75-36.07-27.52C620,174.59,613,193.24,613,193.24s-10.24-14.7-18.46-11.87-13.12,18.45-13.12,18.45S573,203.91,571.66,208Z" style="fill:#ebebeb"></path><path d="M406.15,314.73l77.26.12s-7.28-6.8-10.52-6.8-12.67-22.8-24.75-21.85-18.53,17.9-18.53,17.9S414.93,299.48,406.15,314.73Z" style="fill:#ebebeb"></path><path d="M568.79,120.48l66.07.1s-3.28-4.28-6.9-4.82c0,0-7-21-18.8-21.15-11-.16-15.38,12.87-15.38,12.87s-5.07-5.85-9.92-3.19-7.62,10.32-7.62,10.32S570.78,117.54,568.79,120.48Z" style="fill:#ebebeb"></path><path d="M51.76,267.64l66.06.1s-3.27-4.28-6.89-4.82c0,0-7-21-18.81-21.15-11-.15-15.38,12.87-15.38,12.87s-5.06-5.85-9.92-3.18-7.62,10.31-7.62,10.31S53.74,264.7,51.76,267.64Z" style="fill:#ebebeb"></path><polygon points="258.54 110.58 231.94 110.58 201.3 435.98 236.9 435.98 258.54 110.58" style="fill:#ebebeb"></polygon><polygon points="256.73 137.76 253.37 188.36 224.72 187.23 229.48 136.69 256.73 137.76" style="fill:#c7c7c7"></polygon><rect x="219.3" y="147.6" width="44.34" height="7.27" style="fill:#ebebeb"></rect><rect x="352.83" y="147.6" width="44.34" height="7.27" style="fill:#ebebeb"></rect><polygon points="491.46 110.58 518.06 110.58 548.7 435.98 513.1 435.98 491.46 110.58" style="fill:#ebebeb"></polygon><polygon points="557.53 92.84 548.7 110.58 201.3 110.58 192.47 92.84 557.53 92.84" style="fill:#ebebeb"></polygon><path d="M597.43,64,578.36,92.84H171.64L152.57,64S339.09,76.88,375,76.88,597.43,64,597.43,64Z" style="fill:#c7c7c7"></path><polygon points="493.27 137.76 496.63 188.36 525.28 187.23 520.52 136.69 493.27 137.76" style="fill:#c7c7c7"></polygon><rect x="197.3" y="154.87" width="355.4" height="22.84" style="fill:#ebebeb"></rect><rect x="486.36" y="147.6" width="44.34" height="7.27" transform="translate(1017.06 302.47) rotate(180)" style="fill:#ebebeb"></rect><rect x="361.61" y="110.58" width="26.78" height="37.02" style="fill:#ebebeb"></rect><polygon points="361.61 114.9 361.61 110.58 388.39 110.58 388.39 117.34 361.61 114.9" style="fill:#c7c7c7"></polygon><polygon points="388.39 143.28 388.39 147.6 361.61 147.6 361.61 140.84 388.39 143.28" style="fill:#c7c7c7"></polygon></g><g id="freepik--Plants--inject-204"><path d="M102.29,393.87c-6,.21-12.63.55-17.58-3.32-4.56-3.57-8.64-8.9-8-15,.17-1.75.57-2.82,2.44-2.08,2.85,1.13,5,4.28,7,6.48a60.94,60.94,0,0,0,8.28,7.86c2.12,1.62,4.41,3,6.58,4.61l.81.6.31.23h.17a.26.26,0,0,1,.24.13.19.19,0,0,1,0,.1A.31.31,0,0,1,102.29,393.87Z" style="fill:#E9E9E9"></path><path d="M102.58,393.48c-5.25-.09-10.91.15-15.11-3.41a24.18,24.18,0,0,1-4.87-5.93c-.61-1-2.43-3.93-1.68-5.1,1.37-2.12,7.62,6.52,8.49,7.35a25.6,25.6,0,0,0,11.59,6l.81.6a28.33,28.33,0,0,1-8.7-3.34c-3.73-2.22-5.8-5.51-8.72-8.58-.62-.66-2.52-2.89-3.24-1.5-.47.91,1.28,3.8,1.66,4.41a24.07,24.07,0,0,0,4.61,5.63c4.19,3.66,9.83,3.53,15.11,3.75A.19.19,0,0,1,102.58,393.48Z" style="fill:#fff"></path><path d="M105.58,397.52c0,.22-.1.45-.14.69,0,0,0,0,0,0a.19.19,0,0,1-.11.12.24.24,0,0,1-.31-.12.22.22,0,0,1,0-.14l0-.1.07-.2v0a.14.14,0,0,1,0-.07c-1.06-3.95-1.47-8.05-2.59-12-1.06-3.77-2.38-7.47-3.15-11.32-.48-2.43-2.17-14.61,3.2-13.09,2.38.67,4,4.12,4.91,6.18a25.11,25.11,0,0,1,2,8.75C109.81,383.64,107.08,390.39,105.58,397.52Z" style="fill:#E9E9E9"></path><path d="M107.3,382.35a29.54,29.54,0,0,0-.86-8.27c-.24-.93-1.41-5.41-2.93-5.3-1,.06-1.15,2-1.23,2.64-.34,2.71.54,5.48,1.07,8.11a112.92,112.92,0,0,1,2,16.27c0,.35-.1.7-.14,1s-.08.57-.11.86c0,.1,0,.2,0,.3l0,.23a.26.26,0,0,0,.32.12c0-.22.06-.45.09-.67,0,.19,0,.36,0,.55,0,0,0,0,0,0,0-.19.07-.38.11-.56l0-.13c0-.31,0-.62,0-.91C106.24,391.86,107.18,387.14,107.3,382.35Zm-1.82,12.3c-.14-3.2-.46-6.38-.91-9.55-.36-2.55-.84-5.08-1.38-7.59a26.27,26.27,0,0,1-.69-4.32c0-1.11.11-5.22,2.23-2.67,1.53,1.85,1.9,5.78,2.09,8.05a41.53,41.53,0,0,1-.15,7.56C106.38,389,105.91,391.81,105.48,394.65Z" style="fill:#fff"></path><path d="M108.79,413.9h0l-.22,0c-5.46-.28-12.73.23-17.27-3.38-3.36-2.67-6.65-7.94-5.59-12.41,1.2-5,8,1,9.82,2.46a166.85,166.85,0,0,1,13.37,13s0,.06.07.1v0C109,413.82,108.92,413.87,108.79,413.9Z" style="fill:#E9E9E9"></path><path d="M109,413.74l-.94-.59c-3.59-2.26-7.09-4.68-10.45-7.26-.85-.65-7-6.12-7.92-4.16-.56,1.18,1.47,3.59,2.12,4.4a16.59,16.59,0,0,0,4.14,3.7c3.64,2.27,8,2.76,12.17,3.85.2,0,.39.1.59.15l.1.07h0C108.92,413.87,109,413.82,109,413.74Zm-10.8-3.11a17.07,17.07,0,0,1-4.71-3.18c-.92-.87-4.15-4.14-3.28-5.48.45-.72.83-.34,1.7.09a10.14,10.14,0,0,1,1.15.67c.92.6,1.76,1.3,2.61,2,1.5,1.2,3,2.36,4.58,3.49Q104,411,108,413.44C104.76,412.43,101.3,412,98.18,410.63Z" style="fill:#fff"></path><path d="M118.77,402.65A32.23,32.23,0,0,1,109.41,419a.27.27,0,0,1-.1.06.24.24,0,0,1-.28-.1.21.21,0,0,1,0-.31l.27-.28c.91-7.43,1.9-14.8,2.67-22.25.18-1.75,1.55-12.91,5-11.1,2.12,1.13,2.26,5.7,2.44,7.76A32.79,32.79,0,0,1,118.77,402.65Z" style="fill:#E9E9E9"></path><path d="M116.78,392.7c-.18-.62-.5-1.26-1.2-.82-1.33.83-1.86,6.08-2.08,7.53-.92,6-2.33,11.75-3.78,17.61l-.36,1.49L109,419a.24.24,0,0,0,.28.1,1.13,1.13,0,0,1,0-.15c.15-.19.31-.39.45-.6h0a38.06,38.06,0,0,0,5.4-10.53,35.47,35.47,0,0,0,1.59-7.34C117.05,398.13,117.48,395,116.78,392.7Zm-7,25.2-.21.29c.07-.2.13-.4.19-.6A107.8,107.8,0,0,0,113.1,404c.4-2.35.65-4.71,1.13-7,.2-1,.68-3.78,1.5-4.24s.79.64.88,1.27c0,.45,0,1.28.06,1.7A37.7,37.7,0,0,1,109.78,417.9Z" style="fill:#fff"></path><path d="M110.31,435h-1.09c0-1,0-1.93-.06-2.88-.13-3.88-.29-7.76-.52-11.63-.13-2.22-.29-4.41-.52-6.58a1.79,1.79,0,0,1,0-.23l-.06-.53c0-.19-.05-.38-.08-.58a46.86,46.86,0,0,0-3.74-14.25c-.7-1.51-1.46-3-2.25-4.44-.08-.14-.16-.28-.23-.42l-.07-.11c-.07-.15-.16-.29-.24-.43a3.54,3.54,0,0,0-.19-.33c-2.52-4.44-5.41-8.69-8.15-13q-1.19-1.85-2.34-3.69a1.35,1.35,0,0,1-.14-.22,2.46,2.46,0,0,1-.17-.27C87,370,83.6,364.54,80,359.21c-.14-.2.19-.37.32-.18,2.41,3.54,4.91,7,7.39,10.52l1,1.39c.66.93,1.31,1.85,2,2.77,1.3,1.85,2.58,3.7,3.83,5.58a158.64,158.64,0,0,1,10,16.26l.62,1.29c.13.27.26.54.37.81s.29.62.42.93c2.43,5.56,3.29,11.29,3.68,17.2,0,.4,0,.82.07,1.24,0,.18,0,.38,0,.57s0,.2,0,.31,0,.25,0,.39h0c0,.1,0,.2,0,.3,0,.35,0,.7,0,1.06.16,3.88.26,7.76.34,11.63C110.22,432.52,110.27,433.76,110.31,435Z" style="fill:#E9E9E9"></path><path d="M77.73,364.75c-3-4-6.82-12.31-2.42-16.62a4.7,4.7,0,0,1,6.25-.47c2.33,1.69,3.37,4.87,4.12,7.5,2,7,3.36,14.2,5.88,21.09,0,0,.21.59.27.74s-.17.2-.22.06-.17-.45-.25-.67C86.6,372.93,81.27,369.52,77.73,364.75Z" style="fill:#E9E9E9"></path><path d="M91.6,376.27s0-.09-.07-.12a48.41,48.41,0,0,1-2.8-5.21,99.81,99.81,0,0,1-4.29-11.51c-.48-1.51-2.63-8.89-5.27-5.95-1.11,1.24-1,3.43-.78,4.95a18.5,18.5,0,0,0,2.3,6.92c2.37,4.27,6,7.5,9.92,10.37l.53.4.11.18.07.12a.13.13,0,0,0,.07.06.16.16,0,0,0,.23-.1A.11.11,0,0,0,91.6,376.27Zm-1.16-.82A39.41,39.41,0,0,1,82,367a21,21,0,0,1-2.74-5.59,16.56,16.56,0,0,1-.59-2.71,12,12,0,0,1-.12-2.07c.05-1.52.68-3.18,1.57-3.34,1.11-.2,1.48.45,2.22,1.73a10.23,10.23,0,0,1,.65,1.33,36.36,36.36,0,0,1,1.24,3.5c.62,1.95,1.25,3.89,2,5.82.47,1.3,1,2.6,1.53,3.87A51,51,0,0,0,91,375.91C90.82,375.77,90.63,375.61,90.44,375.45Z" style="fill:#fff"></path><path d="M523.4,409.9c-3.64.12-7.71.33-10.72-2-2.79-2.18-5.28-5.43-4.91-9.17.11-1.06.35-1.72,1.5-1.26,1.73.69,3.07,2.61,4.28,3.95a37,37,0,0,0,5.05,4.8c1.3,1,2.7,1.85,4,2.81l.49.37.19.14h.11a.22.22,0,0,1,.15.08.14.14,0,0,1,0,.07A.19.19,0,0,1,523.4,409.9Z" style="fill:#E9E9E9"></path><path d="M523.58,409.66c-3.2-.06-6.66.09-9.22-2.09a14.76,14.76,0,0,1-3-3.61c-.37-.61-1.48-2.4-1-3.12.84-1.29,4.65,4,5.18,4.49a15.65,15.65,0,0,0,7.08,3.67l.49.37a17.5,17.5,0,0,1-5.31-2c-2.27-1.36-3.54-3.36-5.32-5.23-.38-.41-1.54-1.77-2-.92-.28.55.79,2.31,1,2.69a14.76,14.76,0,0,0,2.81,3.44c2.56,2.23,6,2.15,9.23,2.28A.14.14,0,0,1,523.58,409.66Z" style="fill:#fff"></path><path d="M525.41,412.12c0,.14,0,.28-.08.42h0a.1.1,0,0,1-.06.08.17.17,0,0,1-.2-.07.14.14,0,0,1,0-.09s0,0,0-.06l0-.12h0a.09.09,0,0,0,0,0c-.64-2.41-.9-4.91-1.57-7.33s-1.46-4.56-1.93-6.91c-.29-1.48-1.32-8.92,1.95-8,1.45.41,2.45,2.51,3,3.77a15.38,15.38,0,0,1,1.21,5.34C528,403.65,526.33,407.77,525.41,412.12Z" style="fill:#E9E9E9"></path><path d="M526.46,402.86a17.82,17.82,0,0,0-.52-5c-.15-.58-.86-3.31-1.79-3.24-.6,0-.7,1.22-.75,1.61a15.75,15.75,0,0,0,.65,4.95,68,68,0,0,1,1.2,9.93c0,.21-.06.43-.08.64s0,.35-.07.52,0,.12,0,.18,0,.09,0,.14a.16.16,0,0,0,.19.08l.06-.41c0,.11,0,.22,0,.33h0a3.4,3.4,0,0,1,.07-.34s0-.05,0-.08c0-.19,0-.37,0-.55A73.17,73.17,0,0,0,526.46,402.86Zm-1.1,7.51c-.09-1.95-.29-3.89-.56-5.83-.22-1.56-.52-3.1-.84-4.63a15.61,15.61,0,0,1-.42-2.64c0-.67.06-3.18,1.36-1.63.93,1.13,1.16,3.53,1.27,4.92a25.38,25.38,0,0,1-.09,4.61C525.9,406.91,525.62,408.64,525.36,410.37Z" style="fill:#fff"></path><path d="M527.38,422.12h0l-.13,0c-3.33-.17-7.77.14-10.54-2.06-2.05-1.63-4.06-4.85-3.41-7.58.73-3.08,4.89.61,6,1.5a102.53,102.53,0,0,1,8.16,7.95l0,.06h0C527.52,422.07,527.45,422.1,527.38,422.12Z" style="fill:#E9E9E9"></path><path d="M527.49,422l-.57-.36c-2.2-1.38-4.33-2.85-6.38-4.43-.52-.39-4.27-3.73-4.84-2.54-.34.72.9,2.19,1.3,2.69a10.29,10.29,0,0,0,2.53,2.26c2.22,1.38,4.91,1.68,7.42,2.35l.36.09.06,0h0C527.45,422.1,527.52,422.07,527.49,422Zm-6.59-1.9a10.35,10.35,0,0,1-2.88-1.94c-.56-.53-2.53-2.52-2-3.34.27-.44.51-.21,1,.05a6.1,6.1,0,0,1,.7.41c.56.37,1.08.8,1.6,1.21q1.36,1.1,2.79,2.13c1.55,1.13,3.14,2.19,4.77,3.2A48.83,48.83,0,0,1,520.9,420.12Z" style="fill:#fff"></path><path d="M533.46,415.25a19.72,19.72,0,0,1-5.71,10l-.06,0a.15.15,0,0,1-.17-.07.13.13,0,0,1,0-.19l.17-.17c.55-4.53,1.16-9,1.62-13.58.11-1.07.95-7.88,3-6.77,1.3.68,1.38,3.48,1.49,4.73A19.69,19.69,0,0,1,533.46,415.25Z" style="fill:#E9E9E9"></path><path d="M532.25,409.18c-.11-.38-.31-.77-.73-.5-.81.51-1.14,3.71-1.27,4.6-.56,3.65-1.43,7.17-2.31,10.74-.07.3-.14.61-.22.91l-.2.27a.15.15,0,0,0,.17.07l0-.1.27-.36h0a23.32,23.32,0,0,0,3.3-6.43,22,22,0,0,0,1-4.48A12.64,12.64,0,0,0,532.25,409.18ZM528,424.56l-.13.18.12-.37a65.84,65.84,0,0,0,2-8.31c.24-1.43.39-2.87.68-4.29.13-.6.42-2.31.92-2.59s.49.39.54.78,0,.78,0,1A23,23,0,0,1,528,424.56Z" style="fill:#fff"></path><path d="M528.31,435h-.67c0-.59,0-1.18,0-1.76-.08-2.37-.18-4.73-.32-7.1-.08-1.35-.17-2.69-.31-4a.59.59,0,0,1,0-.13l0-.33c0-.11,0-.23,0-.35a28.43,28.43,0,0,0-2.29-8.7c-.42-.92-.88-1.82-1.37-2.71l-.14-.25a.16.16,0,0,0,0-.07l-.15-.27-.11-.2c-1.54-2.71-3.31-5.3-5-7.91-.48-.75-1-1.5-1.43-2.25l-.08-.13a1.63,1.63,0,0,1-.11-.17c-2.1-3.31-4.17-6.66-6.35-9.91-.08-.12.11-.23.19-.11,1.48,2.16,3,4.28,4.52,6.42l.6.85c.4.57.8,1.12,1.19,1.69.79,1.13,1.57,2.26,2.34,3.41a95.13,95.13,0,0,1,6.13,9.92c.13.26.26.52.38.79s.16.32.23.49.17.38.26.57a30.76,30.76,0,0,1,2.24,10.5c0,.24,0,.5,0,.75l0,.35a1.21,1.21,0,0,0,0,.19,1.93,1.93,0,0,0,0,.24h0V425c0,.21,0,.43,0,.65.1,2.36.16,4.73.21,7.09C528.25,433.48,528.28,434.24,528.31,435Z" style="fill:#E9E9E9"></path><path d="M508.41,392.12c-1.82-2.45-4.16-7.52-1.47-10.15a2.87,2.87,0,0,1,3.81-.28c1.42,1,2.06,3,2.52,4.58,1.23,4.29,2.05,8.66,3.59,12.87,0,0,.13.36.16.45s-.1.12-.14,0l-.15-.41C513.83,397.11,510.58,395,508.41,392.12Z" style="fill:#E9E9E9"></path><path d="M516.88,399.15l0-.07a30.43,30.43,0,0,1-1.71-3.18,61,61,0,0,1-2.62-7c-.29-.92-1.6-5.43-3.21-3.63-.68.76-.59,2.1-.48,3a11.36,11.36,0,0,0,1.4,4.23,20.9,20.9,0,0,0,6.06,6.33l.32.24.07.11,0,.07,0,0a.1.1,0,0,0,.14-.06A.06.06,0,0,0,516.88,399.15Zm-.71-.5A24.09,24.09,0,0,1,511,393.5a12.89,12.89,0,0,1-1.68-3.41,11.68,11.68,0,0,1-.36-1.66,6.66,6.66,0,0,1-.07-1.26c0-.93.41-1.94,1-2s.9.27,1.35,1.05a7.77,7.77,0,0,1,.4.82c.3.69.53,1.42.76,2.13.38,1.19.76,2.38,1.19,3.56.29.79.6,1.58.94,2.36a29.62,29.62,0,0,0,2,3.88Z" style="fill:#fff"></path><path d="M648.22,376c-.49,4-1.25,7.93-2.06,11.86-.45,2.23-.93,4.45-1.38,6.69-.5,2.46-1.23,5-.57,7.45h0a1.4,1.4,0,0,1,0,.35l0,0a.3.3,0,0,1-.52-.09,1,1,0,0,1,0-.17l0-.05a9.64,9.64,0,0,1-.86-2.07,50.16,50.16,0,0,1-2-5.76A49.55,49.55,0,0,1,638.85,382,42.06,42.06,0,0,1,640,370.88c.71-2.9,1.72-7.21,3.88-9.43,2-2,3.58,1.21,4.14,2.83C649.3,368,648.69,372.21,648.22,376Z" style="fill:#E9E9E9"></path><path d="M644.66,367.53c-1.46,0-2.51,4.69-3,6.72a40.75,40.75,0,0,0-1.24,9.77,52.14,52.14,0,0,0,3,17.36c.07.23.15.46.23.68l0,.06a1.13,1.13,0,0,0,0,.15.3.3,0,0,0,.52.1c-.09-.5-.17-1-.22-1.47s-.1-.88-.13-1.31c-.4-4.77.29-9.64.89-14.37C645.47,379.66,646.58,367.54,644.66,367.53Zm-1,33c.07.65.18,1.29.3,1.92-.15-.46-.3-.93-.44-1.39a57.9,57.9,0,0,1-2.74-15.32,41.46,41.46,0,0,1,.64-8.75,39.26,39.26,0,0,1,1.13-4.58c.2-.63,1.26-4.56,2.16-4.36.63.14.77,3.67.78,3.75,0,.7,0,1.41,0,2.13,0,1.46-.12,2.92-.24,4.37-.28,3.16-.73,6.31-1.11,9.45A54.7,54.7,0,0,0,643.61,400.52Z" style="fill:#fff"></path><path d="M671.1,387c-2.67,5.2-7.16,9.18-11.8,12.6-2.49,1.83-5.06,3.54-7.58,5.31a39.87,39.87,0,0,0-6.55,5,2.16,2.16,0,0,0-.25.27,9.81,9.81,0,0,0-1.36,1.87.17.17,0,0,1-.13.08,2.09,2.09,0,0,1-.08.23c0,.05-.11,0-.11,0a2.3,2.3,0,0,0,0-.26v0a.17.17,0,0,1,0-.2.22.22,0,0,1,0-.08l0-.26c.76-6.08,5-12.23,8.61-16.91s8-8.82,13.59-11c1.4-.54,4.57-2,6-.88S671.67,385.88,671.1,387Z" style="fill:#E9E9E9"></path><path d="M667,387c-1.27-1.27-5,1.86-5.93,2.59a61.56,61.56,0,0,0-7.72,7.51,55.78,55.78,0,0,0-9.86,14.26h0l-.13.17a1.15,1.15,0,0,0,0,.26.22.22,0,0,0,0,.08.15.15,0,0,0,0,.2c.06-.07.12-.15.18-.21.47-.57,1-1.13,1.46-1.68a3.07,3.07,0,0,1,.25-.26c3.48-3.75,7.58-6.91,11.54-10.19a57.69,57.69,0,0,0,7.68-7.47C665,391.57,668,388.08,667,387Zm-1.17,2.79c-3.14,5.22-8.59,9-13.22,12.83a63.07,63.07,0,0,0-8.78,8.34,58.83,58.83,0,0,1,9.11-12.82,79.67,79.67,0,0,1,6.27-6.46,32.87,32.87,0,0,1,3.8-3,12.47,12.47,0,0,1,2.57-1.39C667.33,386.74,666.35,388.9,665.81,389.8Z" style="fill:#fff"></path><path d="M642.71,424.47a.32.32,0,0,1-.27.15s0,.06.07.1a.09.09,0,0,1,0,.13.09.09,0,0,1-.13,0c-4.93-5-9.68-11.12-12.13-17.76a27.32,27.32,0,0,1-1.76-8.75c-.06-2-.17-6.17,1.58-7.66,3.53-3,6.74,9.72,7.22,11.64.87,3.49,1.45,7.05,2.25,10.56.88,3.85,2,7.62,3.2,11.38A.25.25,0,0,1,642.71,424.47Z" style="fill:#E9E9E9"></path><path d="M642.71,424.47c-.19-.33-.38-.65-.55-1a59.16,59.16,0,0,1-6.35-17.09,54.36,54.36,0,0,0-2.34-8.89c-.29-.71-1.17-3.42-2.34-2.05-.6.71-.1,5.85.14,7.17a38.24,38.24,0,0,0,2.86,8.74,61.53,61.53,0,0,0,8.08,13.12l.28.36a.09.09,0,0,0,0-.13.86.86,0,0,1-.07-.1A.31.31,0,0,0,642.71,424.47Zm-7.15-10.93a44,44,0,0,1-3.39-8.48,33.07,33.07,0,0,1-.74-3.56,19.57,19.57,0,0,1-.24-2.85c0-2.32.2-2.92.59-3s.58.2,1.26,1.59a15,15,0,0,1,1,2.82c.36,1.37.68,2.75,1,4.14.61,2.77,1.17,5.55,2,8.26a45.81,45.81,0,0,0,4.9,11.12A70.87,70.87,0,0,1,635.56,413.54Z" style="fill:#fff"></path><path d="M658.53,412.28a17.55,17.55,0,0,1-3.24,6.72c-2.92,4-6.67,7.4-9.86,11.22-.48.57-.95,1.15-1.4,1.75,0,.06-.41.91-.41.84s.06-.34.17-.88h0c.51-2.67,2.19-10.76,4.29-14.89a35.87,35.87,0,0,1,4.67-7.31c.91-1,3-3.24,4.64-2.75S658.77,411,658.53,412.28Z" style="fill:#E9E9E9"></path><path d="M655.92,410.64c-1.71-1.06-6.13,6.82-6.72,7.84a49.92,49.92,0,0,0-5,12c-.14.47-.26.94-.38,1.43s-.17.86-.17.88.37-.77.42-.85l.23-.3c.38-.49.77-1,1.15-1.44,1.92-2.87,3.89-5.71,5.75-8.62a46.21,46.21,0,0,0,3.57-6.56C655,414.53,656.67,411.1,655.92,410.64Zm-.49,2.22c-2.43,6.86-7.4,12.26-11.2,18.35l-.18.3.15-.54a57.08,57.08,0,0,1,4-10,55.93,55.93,0,0,1,3.39-5.65,26.18,26.18,0,0,1,2.11-2.93c.35-.39,1.36-1.42,1.7-1.24C655.92,411.38,655.59,412.41,655.43,412.86Z" style="fill:#fff"></path><path d="M675.71,355.67c-5.08,11.69-18.43,17.13-24.22,28.4l0,.06c-.17.34-.34.69-.5,1.05a.24.24,0,0,1-.39.06.18.18,0,0,1,0-.2c0-.08.08-.17.12-.25.9-7,3.79-14.27,7.14-20.46,2.93-5.39,6.93-10.43,12.47-13.27,1.37-.7,4-2.18,5.57-1S676.34,354.23,675.71,355.67Z" style="fill:#E9E9E9"></path><path d="M671.14,356.17c-.65-.48-1.63.11-2.19.39a20,20,0,0,0-3.86,2.64,32.25,32.25,0,0,0-6.15,7.32,66.25,66.25,0,0,0-7.26,14.71c-.39,1.17-.73,2.36-1,3.56,0,.15-.06.3-.1.44a.24.24,0,0,0,.39-.05c.15-.35.31-.68.48-1a.9.9,0,0,1,0-.09,39.52,39.52,0,0,1,3.62-6.67,95,95,0,0,1,7.62-9C663.77,367.22,673.38,357.81,671.14,356.17Zm-.82,2.71c-1.54,2.74-3.94,5-6,7.32s-4.25,4.69-6.32,7.08a44,44,0,0,0-4.46,6.08,34.54,34.54,0,0,0-2.78,5.62,47.81,47.81,0,0,1,2-5.84l0-.07a86.82,86.82,0,0,1,4.94-9.83l.06-.12a40.7,40.7,0,0,1,5.63-7.86,23.28,23.28,0,0,1,4-3.4c1.67-1.09,3.13-1.79,3.55-1.25C671.22,357,670.78,358.07,670.32,358.88Z" style="fill:#fff"></path><path d="M658,369.37c-1.53,3.3-3,6.64-4.44,10-.68,1.57-1.36,3.14-2,4.71a.9.9,0,0,0,0,.09c-.24.57-.49,1.14-.73,1.7-2.2,5.13-4.63,10.38-6,15.81a47.37,47.37,0,0,0-1.22,8.78c0,.31,0,.62,0,.92h0c0,.17,0,.33,0,.5a2.53,2.53,0,0,0,0,.28c-.09,2.56-.05,5.13,0,7.63.07,3.49.37,6.95.7,10.41a1.53,1.53,0,0,0,0,.3l0,.47,0,.24c0,.15,0,.3,0,.45.11,1.11.21,2.22.3,3.34h-1.06a70.59,70.59,0,0,1-1.29-10.29,1.62,1.62,0,0,1,0-.22c0-.33,0-.67-.05-1s0-.83-.06-1.24c0-1-.06-2-.08-3-.1-5.7,0-11.64,1.22-17.23l.11-.46a1.46,1.46,0,0,1,0-.2c0-.11,0-.22.07-.33l.14-.53c.08-.31.18-.63.27-.93l.08-.28a111.51,111.51,0,0,1,5.88-14.19l1.17-2.5.67-1.39c.34-.7.7-1.4,1-2.09l0-.07c1.63-3.29,3.33-6.53,4.94-9.83C657.76,369.09,658,369.21,658,369.37Z" style="fill:#E9E9E9"></path><path d="M224.81,399c-.3,2.43-.77,4.84-1.26,7.23-.28,1.37-.57,2.72-.85,4.09a10,10,0,0,0-.34,4.54h0a.75.75,0,0,1,0,.21l0,0a.18.18,0,0,1-.31-.05l0-.11,0,0a5.92,5.92,0,0,1-.52-1.26,33,33,0,0,1-1.21-3.51,30.71,30.71,0,0,1-1.18-7.5,25.61,25.61,0,0,1,.71-6.76c.43-1.77,1-4.4,2.36-5.75s2.19.73,2.53,1.72C225.47,394.08,225.09,396.67,224.81,399Z" style="fill:#E9E9E9"></path><path d="M222.63,393.82c-.88,0-1.53,2.86-1.84,4.1a24.47,24.47,0,0,0-.76,6,31.89,31.89,0,0,0,1.83,10.6c0,.14.09.28.15.41l0,0a.32.32,0,0,0,0,.09.18.18,0,0,0,.31.06c-.05-.3-.1-.59-.13-.89a7.4,7.4,0,0,1-.08-.81,41.66,41.66,0,0,1,.54-8.77C223.13,401.22,223.81,393.82,222.63,393.82ZM222,414c0,.39.11.78.18,1.16-.09-.28-.18-.56-.26-.84a35.47,35.47,0,0,1-1.67-9.35,24.64,24.64,0,0,1,.39-5.35,21.86,21.86,0,0,1,.69-2.79c.12-.39.76-2.78,1.31-2.66.39.08.48,2.24.48,2.28,0,.43,0,.87,0,1.3,0,.9-.07,1.79-.15,2.68-.17,1.92-.44,3.84-.68,5.76A33.48,33.48,0,0,0,222,414Z" style="fill:#fff"></path><path d="M238.77,405.69c-1.62,3.18-4.37,5.61-7.2,7.69-1.52,1.12-3.09,2.17-4.63,3.24a25.72,25.72,0,0,0-4,3.08l-.15.17A6.15,6.15,0,0,0,222,421a.1.1,0,0,1-.07.05l-.06.14s-.06,0-.06,0a.77.77,0,0,1,0-.15v0a.09.09,0,0,1,0-.12l0-.05s0-.1,0-.15c.46-3.72,3.06-7.47,5.25-10.33a19.85,19.85,0,0,1,8.3-6.69c.85-.32,2.79-1.23,3.66-.53S239.12,405,238.77,405.69Z" style="fill:#E9E9E9"></path><path d="M236.26,405.71c-.78-.78-3,1.13-3.62,1.58a37.08,37.08,0,0,0-4.71,4.58,33.66,33.66,0,0,0-6,8.71h0l-.08.1a1,1,0,0,0,0,.16l0,.05a.1.1,0,0,0,0,.13l.11-.13c.29-.35.59-.69.89-1l.15-.16a74.63,74.63,0,0,1,7.05-6.22,34.84,34.84,0,0,0,4.69-4.56C235,408.49,236.91,406.36,236.26,405.71Zm-.71,1.7c-1.92,3.18-5.25,5.51-8.08,7.83a39.16,39.16,0,0,0-5.36,5.09,36.28,36.28,0,0,1,5.57-7.83,48.85,48.85,0,0,1,3.82-3.93,20.77,20.77,0,0,1,2.32-1.86,8.19,8.19,0,0,1,1.57-.85C236.47,405.54,235.87,406.86,235.55,407.41Z" style="fill:#fff"></path><path d="M221.45,428.57a.19.19,0,0,1-.17.09s0,0,0,.06a.06.06,0,0,1,0,.08.05.05,0,0,1-.08,0A32.08,32.08,0,0,1,213.82,418a16.8,16.8,0,0,1-1.07-5.34c0-1.25-.1-3.76,1-4.67,2.15-1.83,4.11,5.93,4.4,7.1.53,2.13.89,4.31,1.38,6.45.54,2.35,1.24,4.65,1.95,6.95A.16.16,0,0,1,221.45,428.57Z" style="fill:#E9E9E9"></path><path d="M221.45,428.57c-.12-.2-.24-.4-.34-.6a36,36,0,0,1-3.88-10.43,32.89,32.89,0,0,0-1.43-5.43c-.17-.43-.71-2.08-1.42-1.24-.37.43-.06,3.57.08,4.37a23.2,23.2,0,0,0,1.75,5.34,38.19,38.19,0,0,0,4.93,8l.17.21a.06.06,0,0,0,0-.08l0-.05A.22.22,0,0,0,221.45,428.57Zm-4.37-6.67a26.67,26.67,0,0,1-2.07-5.18,19.88,19.88,0,0,1-.45-2.17,12.77,12.77,0,0,1-.15-1.74c0-1.41.13-1.78.36-1.83s.35.12.77,1a9.79,9.79,0,0,1,.61,1.72c.22.84.41,1.68.59,2.53.37,1.69.71,3.39,1.2,5a28.18,28.18,0,0,0,3,6.79A43.55,43.55,0,0,1,217.08,421.9Z" style="fill:#fff"></path><path d="M231.1,421.13a10.63,10.63,0,0,1-2,4.1c-1.78,2.47-4.07,4.52-6,6.85-.29.35-.57.7-.85,1.07,0,0-.25.55-.25.51s0-.2.1-.54h0c.32-1.63,1.34-6.57,2.62-9.09a21.94,21.94,0,0,1,2.85-4.46c.56-.62,1.85-2,2.83-1.68S231.25,420.35,231.1,421.13Z" style="fill:#E9E9E9"></path><path d="M229.51,420.13c-1-.65-3.74,4.16-4.1,4.78a30.71,30.71,0,0,0-3.08,7.34c-.08.29-.16.58-.23.87s-.1.53-.1.54.23-.47.25-.51l.15-.19c.23-.3.46-.59.7-.88,1.17-1.75,2.37-3.48,3.51-5.26a27.59,27.59,0,0,0,2.17-4C228.92,422.5,230,420.41,229.51,420.13Zm-.3,1.36c-1.49,4.18-4.52,7.48-6.84,11.2l-.11.18c0-.11.06-.22.1-.33a35.12,35.12,0,0,1,2.45-6.11,33.5,33.5,0,0,1,2.07-3.45,17.26,17.26,0,0,1,1.29-1.79c.21-.24.83-.86,1-.76S229.3,421.21,229.21,421.49Z" style="fill:#fff"></path><path d="M241.59,386.58c-3.1,7.13-11.25,10.45-14.79,17.33v0c-.11.21-.21.42-.31.64a.15.15,0,0,1-.24,0,.12.12,0,0,1,0-.12l.07-.15a37.12,37.12,0,0,1,4.36-12.49,18.93,18.93,0,0,1,7.62-8.1c.83-.42,2.46-1.33,3.39-.62S242,385.7,241.59,386.58Z" style="fill:#E9E9E9"></path><path d="M238.79,386.88c-.39-.29-1,.07-1.33.24a11.93,11.93,0,0,0-2.35,1.61,19.63,19.63,0,0,0-3.76,4.47,40.78,40.78,0,0,0-4.43,9c-.24.71-.45,1.44-.62,2.17l-.06.27a.15.15,0,0,0,.24,0c.09-.22.19-.41.29-.62l0-.06a24,24,0,0,1,2.22-4.07,56.69,56.69,0,0,1,4.65-5.51C234.3,393.63,240.16,387.88,238.79,386.88Zm-.49,1.65a26.74,26.74,0,0,1-3.69,4.47c-1.28,1.44-2.59,2.87-3.85,4.32A27.71,27.71,0,0,0,228,401a21,21,0,0,0-1.7,3.43,30,30,0,0,1,1.21-3.57s0,0,0,0a52.53,52.53,0,0,1,3-6,.25.25,0,0,1,0-.07,24.25,24.25,0,0,1,3.43-4.8,14.34,14.34,0,0,1,2.45-2.08c1-.66,1.91-1.09,2.17-.76S238.58,388,238.3,388.53Z" style="fill:#fff"></path><path d="M230.74,394.94c-.93,2-1.82,4.05-2.7,6.1-.42,1-.83,1.92-1.24,2.87l0,.06c-.14.34-.3.69-.44,1a63.13,63.13,0,0,0-3.65,9.65,28.83,28.83,0,0,0-.74,5.36l0,.56h0c0,.1,0,.21,0,.31v.17c-.06,1.56,0,3.13,0,4.66,0,2.13.22,4.24.43,6.35a1.09,1.09,0,0,0,0,.18l0,.29s0,.1,0,.15l0,.27.18,2h-.65a42.6,42.6,0,0,1-.78-6.28.62.62,0,0,1,0-.13c0-.21,0-.42,0-.62s0-.5,0-.76c0-.61,0-1.21,0-1.81a44.67,44.67,0,0,1,.75-10.52c0-.09,0-.18.07-.28a.5.5,0,0,1,0-.12c0-.07,0-.13,0-.2L222,414c0-.2.11-.39.17-.58l.05-.16a66.32,66.32,0,0,1,3.59-8.66c.23-.52.47-1,.71-1.54l.41-.84.63-1.28s0,0,0,0c1-2,2-4,3-6C230.63,394.77,230.79,394.84,230.74,394.94Z" style="fill:#E9E9E9"></path></g><g id="freepik--Circle--inject-204"><circle cx="385.8" cy="219.01" r="60.61" style="fill:#E9E9E9"></circle></g><g id="freepik--Map--inject-204"><path d="M339.27,257a8.81,8.81,0,0,0,5-2.65,1.93,1.93,0,0,0,.27-2.76,10.59,10.59,0,0,1-.94-1.91c-.2-.43-.35-1.06-.09-1.29,1.45-1.29,1.17-3.58,2.82-4.74a9.37,9.37,0,0,0,1.13-1.14,4,4,0,0,0,1.42-2.88,3.08,3.08,0,0,1,2.14-2.76,3.9,3.9,0,0,0,2.6-3.72c-.12-3,.36-6-.45-8.95-.45-1.66.81-3.24,3.05-3.68a25,25,0,0,0,3.72-1.39c.66-.23,1.38-.66,2,0s.29,1.44,0,2.14a3.69,3.69,0,0,1-1.55,1.77,11.73,11.73,0,0,0-3,3.07c-.47.57,0,1.05.35,1.39a6.16,6.16,0,0,1,2.48,4.12c.09,1,1.16.63,1.79.36a12.18,12.18,0,0,0,3.91-2.55,23.82,23.82,0,0,1,3.45-3,5,5,0,0,1,2.58-1.07,2.93,2.93,0,0,0,2.71-2.19,10.75,10.75,0,0,1,.79-1.55,2.8,2.8,0,0,1,1.36-1.25c2.21-.8,3-1.89,2.92-4.31a5.13,5.13,0,0,1,.23-2c.24-.62.6-1.23,1.22-1.35,2.35-.47,3.28-2.49,4.56-4.09a5.84,5.84,0,0,0,1.34-4.74,5.24,5.24,0,0,1,1.28-4.62c.54-.57.52-1.67.76-2.52a5.3,5.3,0,0,1,1.63-3,1.72,1.72,0,0,0,.54-1.32,6.78,6.78,0,0,1,1.84-4.21,1.39,1.39,0,0,0,.41-1.31,7.9,7.9,0,0,1,1.13-6,3.82,3.82,0,0,0,.48-4.38c-.45-.82-.2-2-.31-3a3.23,3.23,0,0,0-3.78-2.94,2.44,2.44,0,0,1-.54,0c-.76,0-1.68.1-2-.71s.44-1.52,1.07-1.95c1.31-.9,1.69-2.45,2.64-3.6.6-.75.18-1.78-.24-2.67-.93-2-1.73-4-1.26-6.32a3.23,3.23,0,0,1,3.38-2.88c1-.05,1.61-.47,1.53-1.6-.08-1-.31-2,.77-2.65.39-.24.1-.54-.09-.79s-.59-.67-.83-1c-.86-1.32-.41-2.33,1.13-2.63a2.82,2.82,0,0,1,3.39,2c.33,1,.64,1.95.95,2.93.1.29.18.63.58.64s.5-.33.61-.62.24-.78.41-1.14a1.28,1.28,0,0,1,2-.66,9.42,9.42,0,0,0,1,.45c.44.18.89.58,1.37.19s.33-1,.21-1.5c-.45-1.95-.82-2.27-2.82-2.32-.58,0-1.16,0-1.74,0s-1.12.61-1.45-.08a2.25,2.25,0,0,1,.08-2.54,4.59,4.59,0,0,0,1-2.15c.49-2.08,1.76-3,3.41-2.48A1.75,1.75,0,0,1,407,138a4.21,4.21,0,0,0,3.27,3.71c2.34.48,2.73,2.15,3,4a3.69,3.69,0,0,1,0,1.48c-1.1,4.08,1,7.18,3.16,10.23a18.05,18.05,0,0,0,4.13,4.19c2.33,1.7,2.93,4.17,3.23,6.81a11,11,0,0,1,.07,4.13,2.21,2.21,0,0,0,.29,1.67c1.05,1.91.92,3.4-.6,4.86a2.9,2.9,0,0,0-1,2.72,1.61,1.61,0,0,1-.82,1.66,4.6,4.6,0,0,0-2,5,12,12,0,0,1-.15,6.37c-.51,1.55-.78,1.68-2.33,1.25a2,2,0,0,0-2.62,1.59,13.5,13.5,0,0,1-1.55,4.1c-1,1.68-.21,4.9,1.33,6.08a4.07,4.07,0,0,1,1.69,3.47c0,3.12.06,6.26-.09,9.38-.12,2.55-.78,4.92-3.16,6.48-1.12.73-.75,2-.36,2.93a3.38,3.38,0,0,1-.26,3.36A7.22,7.22,0,0,0,414,242.9c2,1.58,2.09,3.45-.53,4.67a4.48,4.48,0,0,0-2.24,5.9,7,7,0,0,1,.51,2.74c0,1.89-.49,2.58-2.28,3.12a9.45,9.45,0,0,0-4,1.8c-.59.55-1.06.16-1.43-.38a6.55,6.55,0,0,1-.89-3.72,3.26,3.26,0,0,0-.59-2.15c-.65-.77-.5-1.29.37-1.8.39-.23,1.23-.35,1-1a2.42,2.42,0,0,0-1.43-1.52,1.3,1.3,0,0,0-1.59.7c-.45.77-.81,1.59-1.21,2.39-.31.61-1.65.42-1.25,1.58a5.57,5.57,0,0,0,1.36,1.8,3.59,3.59,0,0,1,.84,2.23,1.06,1.06,0,0,1-.75,1.14.92.92,0,0,1-1.18-.35,1.73,1.73,0,0,0-.17-.21c-2.1-2.28-3.56-2.32-5.9-.22-.44.4-.77.88-.54,1.41.87,2,0,3.63-1,5.26-.34.58-.7,1.15-1,1.75a1.72,1.72,0,0,1-1.82,1c-2.11-.07-2.39-.42-1.62-2.39a12.59,12.59,0,0,0,.46-2.64c.1-.58-.18-.9-.88-.76a4.55,4.55,0,0,0-2.54,1.63c-.24.27-.37.73-.65.84-2.51,1-3.61,3-4.23,5.43a2.93,2.93,0,0,1-1.45,1.54,1.61,1.61,0,0,1-2.09-.11,2.6,2.6,0,0,0-3.74-.16,1.74,1.74,0,0,1-2,.15c-.43-.23-.83-.42-1.09.2-1-.11-1.46.73-2.2,1.05-.33.14-.62.35-.95.49s-1,.61-1.36.36.1-.85.11-1.31.23-.76,0-1-.61,0-.78.25a2.33,2.33,0,0,1-3.4.51c-1.25-.86-.71-2.13-.43-3.29a1.9,1.9,0,0,0-1.41-2.49c-.89-.28-1.7-.15-1.91,1a3.89,3.89,0,0,0,.59,4,2.09,2.09,0,0,1,.41.83,2.74,2.74,0,0,0,3.07,2.45c.67,0,.82.23,1,.75.69,2.19,0,3.27-2.28,3.61a10.56,10.56,0,0,0-9.48,9.34,2.34,2.34,0,0,1-1.94,2.19,1.37,1.37,0,0,0-1.21,1.3c-.52,2.75-1.57,3.29-4.25,2.42a8.44,8.44,0,0,0-4.08-.52,2.91,2.91,0,0,1-2.9-2.32,5.45,5.45,0,0,0-1.38-2.7c-1.11-1.11-1.51-2.57-2.27-3.85-.49-.83-.6-1.78.5-2.27.83-.37.61-1,.56-1.6a1.91,1.91,0,0,1,1-2c.92-.55,1.75-1.24,2.64-1.85a1.46,1.46,0,0,0,.71-.92c.15-.74.46-1.55-.29-2.11s-1.31.08-1.89.48-.87,1.08-1.59.46c-1.68-1.44-3.44-.87-5.16-.19a2.1,2.1,0,0,1-1.63,0c-1.22-.42-2.46-.81-3.72-1.12a3,3,0,0,0-3.16,1.51c-.93,1.88-2,2.52-4,2.09a2.14,2.14,0,0,0-2.26.63,10.09,10.09,0,0,1-1.92,1.45c-.69.43-1.4.82-2.07-.16-.37-.53-1.05-.4-1.63-.25a9.09,9.09,0,0,0-2.62,1.32c-.88.55-1.76,1.11-2.88.59-.43-.2-.77.14-1.12.3a10,10,0,0,1-3.17,1.06c-1.21.11-1.55-.28-1.35-1.48.07-.38.34-.8-.09-1.1s-.88,0-1.23.24c-1.23.84-2.31,1.73-2.5,3.43a11.69,11.69,0,0,1-1.36,4.05c-1.18,2.25-3.15,2.59-5,.9a3.68,3.68,0,0,0-4.58-.34,3.61,3.61,0,0,1-4.25.31,2.84,2.84,0,0,0-2.48,0,2.38,2.38,0,0,1-1.31.17c-1.38-.27-2.74-.67-4.16-.82a1.24,1.24,0,0,1-1.18-1.27c.1-1.77.48-3.48,2-4.63a2.39,2.39,0,0,1,2.29-.43,1.4,1.4,0,0,0,1.95-.88,3.55,3.55,0,0,1,3.57-2.13,1.76,1.76,0,0,0,1.46-.74,7.72,7.72,0,0,1,4-2.77c.47-.11.64-.42.85-.77a6.63,6.63,0,0,1,4.73-3.22,2.53,2.53,0,0,0,1.71-1.09,14,14,0,0,1,3.08-3.35,1.91,1.91,0,0,0,.64-1.13,20.31,20.31,0,0,1,1.75-4.06c.31-.49.68-1.06,1.37-.84s.77.79.76,1.42c0,.44.06.88.09,1.29.45.1.59-.17.72-.38,1.1-1.7,1.82-2,3.79-1.37a2.49,2.49,0,0,0,2.25-.26,16.86,16.86,0,0,1,5.56-2.29,1.91,1.91,0,0,1,2,.43,2,2,0,0,0,2.17.66,15.15,15.15,0,0,0,7.33-3.06,5.61,5.61,0,0,1,5.51-1.25c1.31.41,2.32-.46,3.29-1.14,1.72-1.21,2.75-.82,2.93,1.26a1.31,1.31,0,0,0,1.56,1.39A9,9,0,0,0,339.27,257Z" style="fill:#263238"></path><path d="M401.53,133.11c-1.31,1.23-3.15,1.68-4.4,3a1,1,0,0,1-1.36.17c-1.29-.88-1.25-.07-1.23.89a3.2,3.2,0,0,1-2.9,3.27,1.84,1.84,0,0,1-2.16-1.85c.12-2.31-.7-4.57-.33-6.88a1.57,1.57,0,0,0-.89-2.57c-2.36-.84-2.26-2.57-2.44-4.61-.29-3.41,1.85-5.68,3.12-8.37.19-.39.57-.37.94-.37a5.9,5.9,0,0,0,2.16-.23c-1.74-1.62-1.37-3.36-.56-5.1a1.14,1.14,0,0,0,0-1.13,9.5,9.5,0,0,1-.89-3.63,2,2,0,0,1,.89-2,1.54,1.54,0,0,1,2,.11,5.4,5.4,0,0,0,3.8,1.49,4,4,0,0,1,1.59.66,1.9,1.9,0,0,0,2.89-.89,3.5,3.5,0,0,0,0-3.45c-2.06-3.55-1.67-6.65,1.11-9.7.27-.3.53-.48.36-1a19,19,0,0,1-.3-9.44,11.31,11.31,0,0,0-.65-5.64c-.66-2-1.91-3.75-2.24-5.87a13.74,13.74,0,0,1-.29-4.14,2.27,2.27,0,0,1,1.54-2.16,2.88,2.88,0,0,1,2.85.78c3.81,3.75,8.36,6.49,13,9a36.08,36.08,0,0,1,6.21,4.1,1.27,1.27,0,0,0,.67.4,10.44,10.44,0,0,1,5,2.17,7.51,7.51,0,0,0,4.54.92,3.37,3.37,0,0,1,3.14,1.43c.35.5.64.61,1.2.35a5.59,5.59,0,0,1,4.06-.28,1.41,1.41,0,0,0,1.71-.69,10,10,0,0,0,1.45-3.3,9.92,9.92,0,0,1,4.12-5.45c.35-.26.76-.57,1.23-.29s.39.89.26,1.34a4.74,4.74,0,0,1-1.21,2.49,1.67,1.67,0,0,0-.13,2.53c1.05,1.1,1.06,2.4,1.12,3.73l.09,2c0,.68,0,1.33,1,1.52.59.12.71.68.83,1.25.31,1.46.44,3,2,3.89.58.33.59,1.06.45,1.75A5.08,5.08,0,0,0,457,92.08c.24-.19.43-.45.68-.65a2.26,2.26,0,0,1,2.36-.52,1.18,1.18,0,0,1,.72,1.32c-.07,1-.37,2.13-1.26,2.37-2.44.66-3.81,2.57-5.46,4.17a11.94,11.94,0,0,0-1.16,1.31c-.42.55-.74.65-1.21,0-.34-.44-.79-.68-1,.17a1.89,1.89,0,0,1-1.81,1.39c-3.16.13-5.8,1.77-8.66,2.77a2.56,2.56,0,0,0-1.73,2.06c-.44,2.63-1.9,4.8-3,7.12a6.09,6.09,0,0,0-.63,2.57,12.82,12.82,0,0,1-.49,4.75,3.59,3.59,0,0,0,.51,3,12.58,12.58,0,0,1,.65,1.33,1,1,0,0,1-.05,1.14.86.86,0,0,1-1.12.08,9.79,9.79,0,0,0-4.26-1.25,3.65,3.65,0,0,1-2.81-2.63c-.24-.59-.51-.72-1.17-.69-2.29.09-4.37-.31-6-2.27a3,3,0,0,0-3.49-1c-1.95.66-3.92.61-5.4-1.17-.34-.41-.65-.27-.93-.07a5.39,5.39,0,0,0-1.42,1.21,9,9,0,0,1-4,3.07,6.9,6.9,0,0,0-2.75,2,2.08,2.08,0,0,1-3.6-.54,5.53,5.53,0,0,0-2.64-2.57c-1.65-.85-2.78,0-2.86,1.8-.09,2.3,1.47,3.41,3,4.57.34.25.69.08,1,0a2.72,2.72,0,0,1,3.07,1.14C401.23,129.56,402.29,131.11,401.53,133.11Z" style="fill:#263238"></path><path d="M273.49,337.06c.86,2.33.45,4.57.58,6.78a1.84,1.84,0,0,1-1.84,2.19c-1.71.1-3.64.83-4.82-1.32-.34-.64-.45-1,0-1.59a4.09,4.09,0,0,1,1.44-1.37c1.27-.49,1.36-1.44,1.32-2.59a58.84,58.84,0,0,1-.14-7.51c.09-1-.34-1.63-1.27-1.68s-2,.33-2.09,1.44a3.32,3.32,0,0,1-1.38,2.45c-1.88,1.5-1.77,3.38.2,4.77.29.2.61.37.91.56.62.41,1.24.88,1.05,1.71a1.81,1.81,0,0,1-1.67,1.37,11.93,11.93,0,0,1-6.51-1.23,1.49,1.49,0,0,1-.74-1.73,1.54,1.54,0,0,1,.22-.76c2.28-2.56,1.1-5.49.89-8.29-.11-1.51-.49-3-.69-4.5-.07-.54-.19-1.17.82-1.13.64,0,.72-.67.82-1.2a2.28,2.28,0,0,1,1.73-2,2,2,0,0,0,1.64-2.82,2.37,2.37,0,0,1,.52-2.46,2.56,2.56,0,0,0,.65-2.35,3.29,3.29,0,0,1,.27-2.34,1,1,0,0,0,0-1.26,2.7,2.7,0,0,1-.51-1.9c0-1.45-.41-1.66-1.69-.93-.34.19-.67.43-1.15.74-.31-.93-.62-1.78-.89-2.65-.13-.44-.38-.77-.83-.73s-.48.56-.47.94a16.17,16.17,0,0,0,.57,3.3c1.05,4.2-2.11,5.68-5.06,5.77a2.7,2.7,0,0,1-2.5-2.42,7.49,7.49,0,0,0-1.09-3.4,5.73,5.73,0,0,1-.51-1.38,1.06,1.06,0,0,1,.7-1.4c.64-.21.87.2,1,.71a1.19,1.19,0,0,0,.19.35c.55.69,1.36,1.2,2.09.72s.67-1.51.11-2.27a5.85,5.85,0,0,0-2.25-1.65l-.5-.22c-1-.4-2.16-.77-1.92-2s1.48-1.17,2.69-1c-1.1-1.94-.17-3.41,1.08-4.56,1.1-1,2,.36,3,.76a2.59,2.59,0,0,1,3.22-1.66c.88.22,1.25-.54,1.38-1.29a8.84,8.84,0,0,1,.59-2.2c.68-1.42,1.71-1.79,3-1a1.9,1.9,0,0,0,1.7.3c1.22-.36,2.16.26,2.89,1.81.36.74.63,1.41,1.62,1.52a1.54,1.54,0,0,1,1.21,1,4,4,0,0,0,3.39,2.52,9,9,0,0,1,4.68,2.65,1.74,1.74,0,0,0,1.84.58c1.84-.45,2.86.84,2.3,2.71a1.06,1.06,0,0,0,.3,1.37,5.67,5.67,0,0,1,1.64,3.72.63.63,0,0,1-.42.8,3.42,3.42,0,0,0-1.86,3.18,11.58,11.58,0,0,1-.57,3.7,2.74,2.74,0,0,1-2.13,2,1.23,1.23,0,0,0-.39.06c-.76.41-3.06,5.21-3,6.11.31,3.15,1.05,6.29.43,9.48-.2,1-.36,2-.64,3-.46,1.7-1.77,2.11-3.18,1.06C275,337.94,274.59,337.24,273.49,337.06Z" style="fill:#263238"></path><path d="M327.34,287.06a2.74,2.74,0,0,1-1.43,2.64,14.71,14.71,0,0,0-3.69,4.23,2.31,2.31,0,0,0-.3,1.28,5.44,5.44,0,0,1-.57,2.2,2.42,2.42,0,0,1-3.49,1.16c-.92-.47-1.8-1-2.71-1.49a2.32,2.32,0,0,0-2-.46,1.5,1.5,0,0,1-1.5-.7,2.3,2.3,0,0,0-1.48-.84c-.72-.08-1.24.12-1.19,1a4.42,4.42,0,0,1-.29,2c-.23.54-.58,1-1.22.78-1.53-.49-1.35.71-1.25,1.42a9.51,9.51,0,0,1,0,2.26c0,.26,0,.66-.21.76-1.53.92-1.37,2.47-1.74,3.92-.47,1.86-2.21,2.89-3.86,3.68-1,.47-1.72-.36-1.84-1.37a1.34,1.34,0,0,0-1.12-1.29c-2.65-.73-3.92-2.35-4.14-5.21a40.73,40.73,0,0,1,.39-6.07,4.28,4.28,0,0,1,1.66-3.14c1.59-1.18,2.71-2.93,4.62-3.71a.93.93,0,0,0,.37-1.63c-.71-.8-.24-1.25.31-1.75,1.37-1.23,3.34-1,5.08.53,1.43,1.26,1.64,1.22,2.55-.51a1.8,1.8,0,0,1,1.61-1,2.55,2.55,0,0,0,2.57-1.55,2.23,2.23,0,0,1,1.24-1.19c1.91-.7,3.82-1.59,5.92-.65a1.07,1.07,0,0,0,.9.14,3,3,0,0,1,2.57.34,7.88,7.88,0,0,0,2.8,1.14C327,284,327.38,285.14,327.34,287.06Z" style="fill:#263238"></path><path d="M453.69,83.24c.26-1.37.12-2.79.91-4a2.25,2.25,0,0,0,.1-1.71,2,2,0,0,1,.46-2c1.61-1.5,2-3.54,2.51-5.51a4.06,4.06,0,0,1,2.51-2.6,1.11,1.11,0,0,1,1.15,0,4.16,4.16,0,0,0,2.79.52c1.42,0,1.17,1.34,1.16,2.14s-.32,1.8-.28,2.75-.71,1.34-1.47,1.54a2.66,2.66,0,0,0-2,1.4c-.14.32-.49.41-.84.55a1.6,1.6,0,0,0-1.18,1.92c.17.88.36,1.86-1.22,1.59-.64-.11-.77.64-.79,1.19,0,1.12,0,2.24,0,3.36s0,2.27-1.38,2.56c-.83.16-2-1.13-2.29-2.31A12.18,12.18,0,0,1,453.69,83.24Z" style="fill:#263238"></path><path d="M270.32,354.81a10.59,10.59,0,0,1,2.39-6.13,1.25,1.25,0,0,1,1.67-.41c.68.35.53,1,.25,1.51s-.64,1.59-1.21,1.88c-1.24.62-.77,1.31-.38,2.06a2.69,2.69,0,0,1-1.12,3.73c-.69.38-1.15.38-1.33-.52A6.9,6.9,0,0,1,270.32,354.81Z" style="fill:#263238"></path><path d="M266.1,355c.59,1.92-.28,3.55-1.66,3.4-.54-.06-1.15-.13-1.24-.78a1.21,1.21,0,0,1,.93-1.42A4,4,0,0,0,266.1,355Z" style="fill:#263238"></path><path d="M377.06,208.08a4,4,0,0,1-3.53,3.51,1.24,1.24,0,0,1-1.15-.79,1.49,1.49,0,0,1,.17-1.75,2.25,2.25,0,0,0,.8-1.32c.21-1.15,1-1.49,2.59-1.32C377,206.53,377.23,207.19,377.06,208.08Z" style="fill:#263238"></path></g><g id="freepik--character-2--inject-204"><path d="M608.55,313.27s-.55,6.19-1.47,16.43c-2.05,22.87-5.93,66-9.64,105.3H524.05c5.2-40.8,10.89-85.24,13.75-107.43l1.8-14.08,0-.22Z" style="fill:#263238"></path><path d="M598.48,322.33l-.6,7.18c-3,35.22-6.26,70.42-10.64,105.49h-1.17q2.34-18.47,4.34-37c2.5-22.83,4.75-45.68,7.07-68.54.24-2.4.49-4.78.73-7.18C598.23,322.15,598.5,322.16,598.48,322.33Z" style="fill:#263238"></path><path d="M625.33,313.27s-1.11,6.26-2.93,16.62c-4.06,22.91-11.66,65.87-18.63,105.11H568.06l-7.76-51.12-.23-1.48L560,382l-.84-5.51-.3-2.06-7-46.33-2.25-14.83Z" style="fill:#37474f"></path><path d="M647.42,435H579.86c-1.67-22.51-3.09-41.2-3.34-44.29l0-.46c-.75-.41-1.5-.83-2.26-1.23-3.55-1.89-6.67-3.39-9.28-4.56-.5-.22-1-.43-1.42-.62-1.31-.57-2.47-1-3.46-1.44-2.51-1-3.9-1.42-3.9-1.42-.08-.22-.17-.42-.24-.63C549.5,364,544.73,342,542.05,327.73c-1.42-7.57-2.26-13-2.45-14.24,0-.19,0-.28,0-.28H631c20.22,42.33,10.61,72.43,10.61,72.43C643.49,401.53,645.51,418.54,647.42,435Z" style="fill:#263238"></path><path d="M552.7,379.17a150.31,150.31,0,0,1,23.79,11.08.27.27,0,0,1-.22.49c-8-3.44-16.19-6.74-24-10.62A.52.52,0,0,1,552.7,379.17Z" style="fill:#37474f"></path><path d="M550.16,324.18c0-.28.5-.34.5,0A266.16,266.16,0,0,0,552,350.91c.37,4.13,3.69,26.95,10.85,25.28,1.19-.28,1.81-1.46,2-3.26.23-2.17-.59-4.84-1-7-.79-4.77-1.43-9.57-1.84-14.39a131.61,131.61,0,0,1,.29-27,.23.23,0,0,1,.46,0c0,12.47.32,24.91,2.18,37.25.9,5.94,3.89,14.87-2.32,15.78s-10.41-14-11.18-18.12C549.34,348.07,549.25,335.73,550.16,324.18Z" style="fill:#37474f"></path><path d="M562.67,376.81a41,41,0,0,1,1.61,4.72,10.88,10.88,0,0,1,.67,3.89.28.28,0,0,1-.5.11,13.76,13.76,0,0,1-1.66-3.78c-.55-1.47-1.12-2.92-1.63-4.4A.8.8,0,0,1,562.67,376.81Z" style="fill:#37474f"></path><path d="M604.63,150.86c8.43,11.16,9,27.64,9,27.64s7.13,17.53,3.26,25.93a16.19,16.19,0,0,1-11.73,9.39l1.62-4.73s-4,5.81-14.94,6.84-24.39-4.2-31.13-8.9a28.14,28.14,0,0,1-9.34-10.89l1.72,7.45s-10.18-1.8-14.72-13.55,15.14-24.93,17.1-28.09,7.31-27.47,32.56-19.57C588,142.38,598.82,143.18,604.63,150.86Z" style="fill:#263238"></path><path d="M609,213.72c3-1.64,6-3.59,7.84-6.19a15.11,15.11,0,0,0,3-9.45c-.15-4.08-1.75-7.88-3.31-11.59s-3.5-7.56-5-11.42c-.09-.22.23-.34.35-.16a92.11,92.11,0,0,1,5.22,9.37,43.86,43.86,0,0,1,3.85,9.39,16.43,16.43,0,0,1-.1,9.22,15.79,15.79,0,0,1-4.19,6.34c-2.23,2.1-4.87,3.28-7.52,4.72C608.9,214,608.8,213.81,609,213.72Z" style="fill:#263238"></path><path d="M537.75,178.52c4.37-8.6,13.32-13.19,19.38-20.38,3.29-3.89,6-8.32,10-11.54.11-.08.26.1.15.19-3.33,2.94-5.56,6.72-8.17,10.25a66,66,0,0,1-9.19,9.57c-6,5.42-13.15,11.82-13.2,20.58,0,4.05,1.71,8.77,5.6,10.59.15.07,0,.31-.13.22a12.8,12.8,0,0,1-6.08-8.13A16.32,16.32,0,0,1,537.75,178.52Z" style="fill:#263238"></path><path d="M537,180.91a16.93,16.93,0,0,1,3.65-9.5c2.21-2.66,5.3-4.37,8.37-5.84,3.54-1.69,7.23-3.25,9.77-6.37.11-.13.29.05.19.18-4.06,5.16-10.62,6.91-15.48,11-5.56,4.73-6.68,12.61-4.26,19.26a27.64,27.64,0,0,0,7.31,10.61c0,.05,0,.14-.08.09C541,195.5,536.44,188.58,537,180.91Z" style="fill:#263238"></path><path d="M566.6,229.49c-26,23.23-58.76,37.3-74.64,35.1-14.91-2.07-40.19-63.9-42.14-75.35-.79-4.62,41.87-5.56,43.84-1,5.5,12.92,13,38.88,15.29,39.61s25.67-3.64,50.43-12.42C572.57,210.79,581.92,215.8,566.6,229.49Z" style="fill:#ffc4c0"></path><path d="M451,191.87c-1.93-4.33-8.31-17.56-9.71-31.13-.63-6.18-1.38-24.11,3.3-25.12s5.3,4.23,5.3,4.23.9-7.62,5.71-8.2,5.5,7.58,5.5,7.58,1.5-7.75,6.33-8,4.16,8.1,4.16,8.1,1-7.16,5.11-5.68c4.89,1.77,1.48,14.75,2.75,21.51.29,1.54,8.08,30.72,8.08,30.72Z" style="fill:#ffc4c0"></path><path d="M471.64,138.61c-2.49,9.55-1.92,14.15,1,23.4.06.18-.19.31-.27.13-3.71-8.8-5.25-14.47-1.21-23.67C471.38,138,471.75,138.16,471.64,138.61Z" style="fill:#263238"></path><path d="M461.31,138.48c-1.71,10.14-1.15,15.14,1.23,25.05,0,.14-.2.21-.25.08-3.14-9.54-4.55-15.23-1.5-25.14C460.92,138,461.39,138,461.31,138.48Z" style="fill:#263238"></path><path d="M450,140.35c-.95,9.94-.56,15.45,3,24.78a.18.18,0,0,1-.33.15c-4.54-9.17-5.07-16-2.95-24.93C449.86,139.75,450.08,139.72,450,140.35Z" style="fill:#263238"></path><path d="M493.85,190.52s3.78-11.76,4.3-17.3-5.14-26.88-9.82-25.92c-6,1.24-5.2,14.21-4,20.5,0,0-14,2.86-15.39,12.29S493.85,190.52,493.85,190.52Z" style="fill:#ffc4c0"></path><path d="M486.79,148.19c-4.7,5.1-2.54,13.26-1.79,19.46a.56.56,0,0,1-.67.65c-5.78,1.59-13.47,5.51-15.58,11.47a.14.14,0,0,1-.28-.07c1.4-6.7,8.64-11.17,15.08-12.5-.87-6.35-2.68-14.62,3.19-19.06C486.77,148.12,486.82,148.16,486.79,148.19Z" style="fill:#263238"></path><path d="M541.42,256.33l-3.61-34.65s16.47-5.93,26.06-7.93c12.68-2.63,16.63,1.46,7.06,14.12C564.52,236.35,541.42,256.33,541.42,256.33Z" style="fill:#E9E9E9"></path><path d="M572.58,225.58c-.34.5-.71,1-1.1,1.55a13.33,13.33,0,0,1,1.16-2.71C572.63,224.81,572.62,225.2,572.58,225.58Zm-32.05,1.77a16.8,16.8,0,0,0-1.55,4c0,.16-.07.33-.11.48h0l.24,2.27a22.23,22.23,0,0,0,.81-2.51A16.36,16.36,0,0,0,540.53,227.35ZM550.12,247a16.42,16.42,0,0,0-3.44,2.59,17.48,17.48,0,0,0,3.94-1.76c.4-.24.8-.49,1.19-.76l1.88-1.72A18.69,18.69,0,0,0,550.12,247Zm4.06-30.71-.85.26a15.36,15.36,0,0,0,1.79,2.18A13,13,0,0,0,554.18,216.29Z" style="fill:#fff"></path><path d="M544.34,252.47c-.18-5.08-.43-10.14-.9-15.2-.24-2.53-1.71-12.57-2-15.08a.11.11,0,1,0-.21,0c0,3.13,1.06,13.12,1.31,15.65.49,5,1.2,9.58,1.58,14.63C544.14,252.65,544.35,252.61,544.34,252.47Z" style="fill:#263238"></path><path d="M570.93,227.87c-6.41,8.48-29.51,28.46-29.51,28.46l-2.72-26.1,37-15.19C577.14,217.3,575.75,221.51,570.93,227.87Z" style="opacity:0.1"></path><path d="M631,313.21l-91.36.28,6.81-43.05s-7.45-10.17-4.45-20c4.21-13.74,25.08-37.13,26.9-38.55,7.32-5.72,18.08-5.05,23.39-.2C624.83,241.45,631,313.21,631,313.21Z" style="fill:#E9E9E9"></path><path d="M557,275.2a17.22,17.22,0,0,1,.11-4.31,16.91,16.91,0,0,1,1.07-4.18,16.32,16.32,0,0,1-.11,4.31A16.69,16.69,0,0,1,557,275.2Zm31.16,32.22a16.69,16.69,0,0,0-1.07,4.18c-.08.57-.14,1.15-.17,1.74h.84c.12-.53.21-1.07.29-1.61A16.33,16.33,0,0,0,588.2,307.42Zm-11.76-82.8a17.24,17.24,0,0,0,.11-4.31,16.73,16.73,0,0,0-1.07,4.17,17.3,17.3,0,0,0-.11,4.32A17.37,17.37,0,0,0,576.44,224.62Zm31.15,35.07a16.76,16.76,0,0,0,.12-4.31,16.72,16.72,0,0,0-1.08,4.18,17.21,17.21,0,0,0-.11,4.31A16.91,16.91,0,0,0,607.59,259.69Zm-26.73,9.12a17.21,17.21,0,0,0-4.31-.11,16.83,16.83,0,0,0,4.18,1.08,17.22,17.22,0,0,0,4.31.11A17.16,17.16,0,0,0,580.86,268.81Zm-27.73,39.43a17.22,17.22,0,0,0-4.31-.11,19.2,19.2,0,0,0,8.49,1.18A17.25,17.25,0,0,0,553.13,308.24Zm65.77-29a17.21,17.21,0,0,0-4.31-.11,19.2,19.2,0,0,0,8.49,1.18A17.6,17.6,0,0,0,618.9,279.2ZM571.3,294a16.83,16.83,0,0,0,3.12-3,16.78,16.78,0,0,0-3.71,2.19,17.57,17.57,0,0,0-3.13,3A16.85,16.85,0,0,0,571.3,294Zm44.32,8.47a16.88,16.88,0,0,0,3.13-3A16.56,16.56,0,0,0,615,301.7a17.57,17.57,0,0,0-3.13,3A16.78,16.78,0,0,0,615.62,302.48ZM557.37,246.1a16.83,16.83,0,0,0,3.12-3,17.21,17.21,0,0,0-3.71,2.2,16.53,16.53,0,0,0-3.12,3A17.21,17.21,0,0,0,557.37,246.1Zm42-26.78-.36.43.52-.22ZM541.7,259.6c.07.37.16.73.25,1.09l.45.37A12.25,12.25,0,0,0,541.7,259.6Zm54.49,25.71a16.88,16.88,0,0,0,3,3.13A19.31,19.31,0,0,0,594,281.6,17.21,17.21,0,0,0,596.19,285.31Zm-8.35-38a16.83,16.83,0,0,0,3,3.12,16.78,16.78,0,0,0-2.19-3.71,17.57,17.57,0,0,0-3-3.13A16.62,16.62,0,0,0,587.84,247.29Z" style="fill:#fff"></path><path d="M576.61,268.43a86.27,86.27,0,0,0-12.86-.21c-2.13.15-4.23.4-6.34.69-1.06.15-2.11.26-3.17.36a13.66,13.66,0,0,1-3.32,0c-.1,0-.12.13,0,.15a23.16,23.16,0,0,0,3.11.5,20.7,20.7,0,0,0,3,0c2.16-.13,4.32-.36,6.48-.52,4.35-.31,8.7-.62,13.07-.62C576.8,268.79,576.81,268.45,576.61,268.43Z" style="fill:#263238"></path><path d="M586.33,274.05a94.45,94.45,0,0,0-10.34-2.4c-1.75-.3-3.5-.49-5.27-.64-.84-.07-1.68-.12-2.53-.17s-1.86,0-2.79,0c-.1,0-.13.14,0,.15.88.08,1.74.31,2.61.45l2.61.4c1.75.28,3.49.57,5.24.83,3.49.51,7,1.06,10.45,1.69C586.47,274.37,586.5,274.1,586.33,274.05Z" style="fill:#263238"></path><path d="M571.73,218.23l-4.57,12.41q-2.26,6.21-4.34,12.47c-.68,2.09-1.35,4.19-1.9,6.31-.3,1.05-.53,2.12-.74,3.18a17.93,17.93,0,0,0-.21,3.2,31.7,31.7,0,0,0,3.21,12.51l.05.12v.11q-.71,11.18-1.53,22.34c-.51,7.45-1.09,14.89-1.69,22.33q.48-11.19,1.07-22.37t1.24-22.35l0,.23a37.34,37.34,0,0,1-2.36-6.27,27.45,27.45,0,0,1-1-6.63,19.28,19.28,0,0,1,.25-3.39c.23-1.1.48-2.19.78-3.26.59-2.14,1.28-4.24,2-6.34,1.41-4.18,3-8.3,4.63-12.4S570,222.26,571.73,218.23Z" style="fill:#263238"></path><polygon points="572.59 226.39 564.34 225.81 564.14 227.05 572.38 228.35 572.59 226.39" style="fill:#263238"></polygon><polygon points="567.8 239.36 559.55 238.78 559.34 240.03 567.59 241.33 567.8 239.36" style="fill:#263238"></polygon><polygon points="563.41 253.57 555.19 254.42 555.2 255.69 563.55 255.54 563.41 253.57" style="fill:#263238"></polygon><polygon points="566.17 267.52 557.94 268.38 557.96 269.64 566.3 269.5 566.17 267.52" style="fill:#263238"></polygon><polygon points="566.01 281.56 557.74 281.56 557.62 282.81 565.94 283.54 566.01 281.56" style="fill:#263238"></polygon><polygon points="565.24 296.14 556.97 296.13 556.85 297.39 565.17 298.12 565.24 296.14" style="fill:#263238"></polygon><path d="M540.68,264.74C509.74,257.53,486,286,455.11,278.9l-10.38-51.12c30.49,5,53.75-25.7,84.25-20.65Z" style="fill:#fff"></path><path d="M528.83,207.1l.18.18c-30.5-5-53.75,25.67-84.23,20.73l.21-.19q5.16,25.56,10.31,51.12l-.22-.2c15.45,3.57,29.1-1.74,42.74-7.05s27.37-10.6,42.86-6.95ZM498,271.89c-13.67,5.35-27.33,10.72-42.81,7.17l-.19,0,0-.17q-5.24-25.55-10.45-51.11l-.05-.22.26,0c30.49,5,53.75-25.65,84.26-20.58l.15,0,0,.14q5.79,28.8,11.55,57.59C525.24,261.18,511.6,266.52,498,271.89Z" style="fill:#263238"></path><path d="M505.5,239.24c1.55,7.68-3.12,16-10.36,19s-14.39-.88-15.89-8.28,3.19-15.65,10.35-19S503.92,231.5,505.5,239.24Z" style="fill:#E9E9E9"></path><path d="M522.45,264.19c-8,1.23-15.57,4.1-23.17,7.06l-3.14-58.13a85.29,85.29,0,0,1,15.32-5.3Z" style="opacity:0.05"></path><path d="M554.7,336a1.07,1.07,0,0,1-1.24-.86L526.39,201.64a1,1,0,1,1,2-.42l27.07,133.53A1.06,1.06,0,0,1,554.7,336Z" style="fill:#455a64"></path><path d="M530.33,198.15a3.62,3.62,0,1,1-4.29-2.8A3.62,3.62,0,0,1,530.33,198.15Z" style="fill:#455a64;fill-rule:evenodd"></path><path d="M610.19,218.89c20.77,14.23,47.26,42.86,47.33,61.41.06,17.87-70.76,33.19-83.69,35-5.59.79-15-42.78-9.09-44.06,9.74-2.1,49.34-8.39,50-8.59,0,0-11.09-15.88-21.08-33.67C580.12,204.79,595.5,208.83,610.19,218.89Z" style="fill:#ffc4c0"></path><path d="M512.15,284.5c-.74,4.62,3.59,6.78,3.59,6.78a10,10,0,0,0-2.43,6.33c.1,4.11,6.59,5.74,6.59,5.74a12.35,12.35,0,0,0-1.5,7.09c.5,3.92,6.81,6.5,6.81,6.5a10.79,10.79,0,0,0,2.6,7.07c4.72,5.07,15.12,3.14,21.73,1.86,9.81-1.9,24.26-10.83,27.8-12.32L570,271s-31.22-3-38.8-.51C524.79,272.63,513,279.31,512.15,284.5Z" style="fill:#ffc4c0"></path><path d="M515.92,290.54c6.24-3.89,13.3-5.72,20.24-7.94a.13.13,0,0,1,.07.24c-6.92,2.13-13.34,5.62-20.16,8A.18.18,0,0,1,515.92,290.54Z" style="fill:#263238"></path><path d="M519.94,302.77a18.78,18.78,0,0,1,4.75-1.62c1.72-.46,3.44-.89,5.18-1.29,3.46-.8,7-1.53,10.45-2.15.16,0,.24.2.08.24-3.46.81-6.9,1.67-10.32,2.62q-2.57.71-5.11,1.47a23,23,0,0,1-4.88,1.19A.25.25,0,0,1,519.94,302.77Z" style="fill:#263238"></path><path d="M525.36,316.9a13.18,13.18,0,0,1,4.35-1.23l4.75-1c3.17-.7,6.34-1.4,9.48-2.22a.13.13,0,0,1,.07.25c-3.18.84-6.36,1.72-9.55,2.53q-2.36.6-4.71,1.17a12.36,12.36,0,0,1-4.36.69A.09.09,0,0,1,525.36,316.9Z" style="fill:#263238"></path><path d="M614.32,262.44a39.44,39.44,0,0,1,9.5,1,43.24,43.24,0,0,1,4.61,1.31,29.44,29.44,0,0,1,4.39,1.91l-4.62-1.16c-1.53-.37-3.06-.75-4.6-1.08C620.52,263.73,617.44,263.12,614.32,262.44Z" style="fill:#263238"></path><path d="M634.57,235l-33.09,10.89s-9.3-14.84-13.28-23.78c-5.27-11.83-2.11-16.56,12.3-9.9C610.14,216.64,634.57,235,634.57,235Z" style="fill:#E9E9E9"></path><path d="M620.4,236.36a19.2,19.2,0,0,1-8.49-1.18,16.33,16.33,0,0,1,4.31.11A16.8,16.8,0,0,1,620.4,236.36ZM605.34,214.8a19.4,19.4,0,0,0-6.36,4.95,16.85,16.85,0,0,0,3.72-2.19,17.75,17.75,0,0,0,2.85-2.64Z" style="fill:#fff"></path><path d="M604.76,244.81a32.82,32.82,0,0,0-3.28.94c-1.05-1.77-2.08-3.56-3.14-5.32-.54-.88-1.09-1.76-1.65-2.62s-1.27-2.07-1.82-2.91a.11.11,0,1,0-.19.11c.6,1.16,1.09,2,1.62,3,.37.71.77,1.41,1.17,2.11l-.44-.45c-.77-.83-1.61-1.58-2.33-2.46-.09-.1-.26.05-.16.15.76.84,1.41,1.76,2.15,2.61a18.32,18.32,0,0,0,1.76,1.88c.86,1.5,1.65,3.3,2.58,4.72a28.76,28.76,0,0,0,3.77-1.66C604.86,244.9,604.82,244.81,604.76,244.81Z" style="fill:#263238"></path><path d="M630.18,232.94c-4.92,1.25-9.82,2.57-14.66,4.11-2.42.77-11.92,4.34-14.31,5.14-.14.05-.06.24.07.21,3.06-.71,12.61-3.83,15-4.61,4.82-1.55,9.11-3.21,14-4.65C630.4,233.1,630.32,232.9,630.18,232.94Z" style="fill:#263238"></path><path d="M587.45,213.29c-.66,1.6-10.35,11.07-17.88,9.47-2.46-.53-.18-14-.18-14l-.06-1-.83-14.5,18.16-7.84,2.6-1s0,4-.12,8.94c0,.23,0,.46,0,.7s0,.55,0,.81c0,.74,0,1.5,0,2.25,0,.57,0,1.13-.06,1.73s-.06,1.19-.08,1.8A94.41,94.41,0,0,1,587.45,213.29Z" style="fill:#ffc4c0"></path><path d="M589.14,193.29a29.16,29.16,0,0,1-19.81,14.4l-.83-14.5,18.16-7.84,2.6-1S589.23,188.33,589.14,193.29Z" style="fill:#263238"></path><path d="M552.78,169.77c-4.27,25.12,10.3,30.52,15.72,31.43,4.92.83,21.77,3,28.61-21.52s-3.49-34.48-14.64-37S557,144.64,552.78,169.77Z" style="fill:#ffc4c0"></path><path d="M596.44,180.15c-4.21.07-4.63-8.78-4.63-8.78s-8.52-.5-10.56-12.92a18.91,18.91,0,0,0,3.14,10.36s-14.92-2.53-20.46-15.49c0,0,2.12,6.56,4.35,9,0,0-6.19-2.15-8.94-7.45,0,0-3.08,7.09-5.23,9,0,0,2.25-26.24,26.42-21.93,0,0,15.17,2,19.89,14.36S596.44,180.15,596.44,180.15Z" style="fill:#263238"></path><path d="M592.79,180.93s6.19-7.47,9.63-5.2-1.67,13.42-6,14.65a4.31,4.31,0,0,1-5.56-2.78Z" style="fill:#ffc4c0"></path><path d="M600.87,178.89a.06.06,0,0,1,0,.11c-3.06,1-4.85,3.58-6.17,6.34,1-1,2.22-1.53,3.6-.36.07.06,0,.17-.09.15a2.67,2.67,0,0,0-3,.68,13.1,13.1,0,0,0-1.58,2.24c-.16.26-.63.08-.5-.22l0-.07C593.42,184,596.79,178.94,600.87,178.89Z" style="fill:#263238"></path><path d="M560.49,165.64a17.34,17.34,0,0,0,1.77-.11,2.88,2.88,0,0,0,1.78-.45.92.92,0,0,0,.16-1.11,2.24,2.24,0,0,0-2.13-.84,3.25,3.25,0,0,0-2.23.86A1,1,0,0,0,560.49,165.64Z" style="fill:#263238"></path><path d="M578.38,169.07a15.7,15.7,0,0,1-1.66-.62,2.84,2.84,0,0,1-1.58-.95.9.9,0,0,1,.17-1.1,2.26,2.26,0,0,1,2.28-.2,3.35,3.35,0,0,1,1.89,1.47A1,1,0,0,1,578.38,169.07Z" style="fill:#263238"></path><path d="M571.72,188.32c-.43.39-.87.94-1.51,1a4.67,4.67,0,0,1-1.85-.52c-.06,0-.12,0-.08.09a2.36,2.36,0,0,0,2.17,1,1.87,1.87,0,0,0,1.44-1.49C571.92,188.31,571.79,188.27,571.72,188.32Z" style="fill:#263238"></path><path d="M564.22,180.56s-.73,2.54-.9,3.77a6.67,6.67,0,0,0,6.69-1.06c.11-.1,0-.26-.16-.2a8.89,8.89,0,0,1-5.53.76c0-.35,1.4-4.31,1.21-4.35a10.4,10.4,0,0,0-2.87.23c1.36-5.34,3.58-10.42,4.86-15.76a.17.17,0,0,0-.31-.12c-2.7,5.15-4.4,11.27-6,16.74C561.05,181.26,563.7,180.7,564.22,180.56Z" style="fill:#263238"></path><path d="M572.13,175.49s.19,0,.17.08c-.34,1-.29,2.22,1.94,2.45.07,0,0,.06,0,.06C571.42,178.06,571.4,176.49,572.13,175.49Z" style="fill:#263238"></path><path d="M574.68,174.29c1.38-.12,2.54.34,2.65,1.22s-.82,1.63-2.58,1.73C570.92,177.47,571.17,174.58,574.68,174.29Z" style="fill:#263238"></path><path d="M571.78,176.35a45.27,45.27,0,0,0,7-1,4.71,4.71,0,0,0-4.42-1.35A3.1,3.1,0,0,0,571.78,176.35Z" style="fill:#263238"></path><path d="M576,174a11.35,11.35,0,0,0,2.13.41,2.06,2.06,0,0,0,1.53-1.09c0-.06.09,0,.1.06a2.12,2.12,0,0,1-1.36,2.23,2.06,2.06,0,0,1-2.59-1.22C575.81,174.21,575.8,174,576,174Z" style="fill:#263238"></path><path d="M563,173.37s-.16,0-.16,0c-.12,1.09-.58,2.2-2.34,1.8-.06,0-.06,0,0,.06C562.58,176,563.16,174.53,563,173.37Z" style="fill:#263238"></path><path d="M561.48,171.51c-1.52-.71-2.32-.38-2.64.16s0,1.86,1.53,2.66C563.11,175.75,564.05,172.7,561.48,171.51Z" style="fill:#263238"></path><path d="M562.93,174.29a36,36,0,0,1-5.36-3.3,4.92,4.92,0,0,1,4.24.36A3,3,0,0,1,562.93,174.29Z" style="fill:#263238"></path><path d="M560.29,170.74a9.25,9.25,0,0,1-1.93-.24,2,2,0,0,1-1-1.5c0-.07-.07,0-.1,0a2.19,2.19,0,0,0,.43,2.52,1.78,1.78,0,0,0,2.58-.38C560.42,171,560.5,170.78,560.29,170.74Z" style="fill:#263238"></path><path d="M564.74,184.24a6.71,6.71,0,0,0,2.22,2.53,3.05,3.05,0,0,0,1.77.46c1.36-.09,1.62-1.27,1.57-2.33a7,7,0,0,0-.28-1.67A8.62,8.62,0,0,1,564.74,184.24Z" style="fill:#263238"></path><path d="M567,186.77a3.05,3.05,0,0,0,1.77.46c1.36-.09,1.62-1.27,1.57-2.33A3.09,3.09,0,0,0,567,186.77Z" style="fill:#ff98b9"></path><path d="M566.85,213.66s.29-5.1.6-5.42,4,4.1,4.31,5.12a58.08,58.08,0,0,1,.18,6.94s2.78-6.76,3.89-7.46,12.22-8.55,13.26-8.18.12,8-.29,8.83S575,225.14,570.8,224,566.85,213.66,566.85,213.66Z" style="fill:#E9E9E9"></path></g><g id="freepik--character-1--inject-204"><path d="M229.26,434.9H161.88c-2.56-27.17-5.28-57-7.34-79.73,0-.61-.11-1.22-.17-1.84-1.89-20.94-3.17-35.42-3.17-35.42h63.08s0,.07,0,.19C214.79,321.91,222.62,382.89,229.26,434.9Z" style="fill:#37474f"></path><path d="M172.48,434.9h-1.07c-3.82-29.61-6.73-59.33-9.33-89.07h0l-.39-4.42q-.65-7.59-1.28-15.19c0-.16.23-.16.25,0q.69,6.74,1.37,13.46c.16,1.64.33,3.26.49,4.89h0c1.71,17,3.41,34,5.28,50.93Q170,415.23,172.48,434.9Z" style="fill:#263238"></path><path d="M205.17,317.91l-8.49,55.95-.29,1.89-.76,5.08-.06.35-.2,1.36-8,52.36H156.55c-4.49-25.35-9.39-53-13.3-75.06-.06-.4-.13-.79-.2-1.17-4.21-23.78-7.22-40.76-7.22-40.76Z" style="fill:#263238"></path><path d="M214.34,317.85s0,.08,0,.25c-.5,3.26-5.93,38.25-15,61.2-.07.2-.14.38-.22.57,0,0-1.27.4-3.56,1.31-.9.35-2,.79-3.17,1.3l-1.3.59c-2.64,1.18-5.85,2.74-9.52,4.72-.35.18-.69.38-1,.57,0,0,0,.15,0,.42-.24,3.11-1.76,23.1-3.46,46.12H113.79c5.16-54,11.64-117,11.64-117Z" style="fill:#37474f"></path><path d="M132.48,327.59c-1.8,23.43-3.51,46.86-5.39,70.27q-1.5,18.51-3.12,37h-1q4.77-53.62,8.94-107.3C132,327.26,132.5,327.26,132.48,327.59Z" style="fill:#263238"></path><path d="M202.31,378.22a138.44,138.44,0,0,0-21.77,10.14.25.25,0,0,0,.2.45c7.33-3.15,14.81-6.16,22-9.71A.48.48,0,0,0,202.31,378.22Z" style="fill:#263238"></path><path d="M204.64,327.9c0-.26-.46-.31-.46,0,.06,8.71-.5,16.37-1.23,24.51-.34,3.77-3.38,24.65-9.93,23.13-1.1-.25-1.66-1.33-1.83-3-.21-2,.54-4.42.87-6.4.73-4.37,1.31-8.76,1.68-13.17a120,120,0,0,0-.26-24.7.21.21,0,0,0-.42,0c0,11.41-.29,22.8-2,34.1-.82,5.43-3.55,13.61,2.13,14.44s9.52-12.84,10.23-16.59C205.39,349.76,205.47,338.47,204.64,327.9Z" style="fill:#263238"></path><path d="M193.19,376.06a34.47,34.47,0,0,0-1.47,4.33,9.71,9.71,0,0,0-.61,3.56c0,.23.33.25.45.09a12.35,12.35,0,0,0,1.52-3.46c.5-1.33,1-2.66,1.49-4A.73.73,0,0,0,193.19,376.06Z" style="fill:#263238"></path><path d="M163.55,334.73a11.66,11.66,0,0,0-.28-2.71.14.14,0,0,0-.27,0,10.88,10.88,0,0,0-.3,2.35c-.09.89-.21,1.79-.31,2.69a40.1,40.1,0,0,1-1,5.45,19.42,19.42,0,0,1-5,9,26,26,0,0,1-8.46,5.57c-3.52,1.49-7.22,2.05-10.86,3.12-.15,0-.1.26,0,.27a31.23,31.23,0,0,0,11.75-2.32,25.14,25.14,0,0,0,8.83-5.63,19.63,19.63,0,0,0,5.14-9.24,28.07,28.07,0,0,0,.71-5.48A26,26,0,0,0,163.55,334.73Z" style="fill:#263238"></path><path d="M180,229.52c13.66,18.63,35.17,47.57,47.2,53.48,13.37,6.57,47.48-22.56,69.63-40.15,4.4-3.5-20.62-39.37-25.13-35.4-11.78,10.38-35.94,34.22-39.45,33.78-2.88-.36-23.48-15-37.76-23.45C171.81,204.35,170.42,216.41,180,229.52Z" style="fill:#f7a9a0"></path><path d="M315.37,230.78c-5.79,7.72-23.79,18.87-29.16,19.89s-25.35-29-23.56-34.28,23.27-29.79,32.8-32.24S321.36,222.79,315.37,230.78Z" style="fill:#f7a9a0"></path><path d="M275.9,183.05c19.5-25.09,55.85-17.87,75.39-42.88L327.17,93.92c-20.56,23.06-57.93,13.88-78.46,37Q262.3,157,275.9,183.05Z" style="fill:#fff"></path><path d="M275.9,183.05c9.74-12.6,23.71-17.09,37.67-21.59s27.89-8.93,37.64-21.44c0,.1,0,.2,0,.3L327,94.11h.28c-20.58,23-58,13.84-78.5,36.94a2.17,2.17,0,0,1,0-.25Zm0,0q-13.65-26-27.29-52l-.07-.13.1-.12c20.51-23.15,57.87-14,78.43-37.07l.17-.19.1.2L351.41,140l.08.15-.12.15c-9.79,12.51-23.79,16.94-37.78,21.39S285.66,170.56,275.9,183.05Z" style="fill:#263238"></path><path d="M287.18,141.08c3.62,6.95,12.49,10.46,20,8.26s10.62-9.75,7.13-16.44-12.33-10.16-20-8.26S283.53,134.08,287.18,141.08Z" style="fill:#E9E9E9"></path><path d="M289.72,171.14c6.95-4,14.68-6.62,22.44-9.11L278,114.89a86.15,86.15,0,0,0-15.24,5.53Z" style="opacity:0.05"></path><path d="M309.9,247.26a1.06,1.06,0,0,0,.42-1.45L247.28,125a1.07,1.07,0,0,0-1.43-.5,1.06,1.06,0,0,0-.42,1.44l63.05,120.79A1.06,1.06,0,0,0,309.9,247.26Z" style="fill:#263238"></path><path d="M242,124.8a3.62,3.62,0,1,0,1.57-4.88A3.63,3.63,0,0,0,242,124.8Z" style="fill:#263238;fill-rule:evenodd"></path><path d="M281.56,190.87c-.51,5.08,5.77,2.77,5.77,2.77s-8.24,5.51-6.74,11c1.47,5.24,9,2.18,9.5,2-.44.3-7.88,5.55-5.8,10.87,2.16,5.52,9.15,1.16,9.6.87-.32.41-4.48,5.86-2,9.54,4.29,6.32,15.32-7.33,21.49-7.73,0,0,1.86,10.38,2,10.67,0,0,10.76-12.77,9.76-21.07a5.34,5.34,0,0,0-4.71-4.74s3.93-3.74,2.43-8c-.78-2.17-5-2.86-5-2.86s3-3.13,1.45-6.81c-1.24-3-5.23-3.18-5.23-3.18s1.51-4.34-.74-6.94C308.86,172,282.65,180,281.56,190.87Z" style="fill:#f7a9a0"></path><path d="M313.5,184a.08.08,0,0,0,0-.15c-9.26.54-19.27,4-26.5,9.86-.24.19,0,.66.27.5C295.87,189.57,303.89,186.13,313.5,184Z" style="fill:#263238"></path><path d="M318,194c.1,0,.07-.19,0-.19-9.54.6-20.71,4.77-28.24,12.55-.26.27-.23.77.09.48C295.23,202.09,309.36,195.9,318,194Z" style="fill:#263238"></path><path d="M293.55,219c7.51-7.19,16.57-11.24,26.48-14.06.12,0,.06-.22-.06-.22-5.22.07-11.34,2.52-16,4.84a27.37,27.37,0,0,0-10.72,9.17C293.19,218.92,293.39,219.18,293.55,219Z" style="fill:#263238"></path><path d="M287.33,193.64a30.86,30.86,0,0,0-4.09,4,10.37,10.37,0,0,0-2.53,4.83,3.38,3.38,0,0,0,.49,2.42,5,5,0,0,0,1.89,1.7,6.11,6.11,0,0,0,5-.12l3.85-1.64-3.05,2.88a17.41,17.41,0,0,0-3.41,4.38,6.13,6.13,0,0,0-.67,5,3.52,3.52,0,0,0,3.66,2.46,10.73,10.73,0,0,0,5-1.88l4.14-2.73-3,3.92a16.13,16.13,0,0,0-2.08,3.54,6.64,6.64,0,0,0-.56,3.79,3.13,3.13,0,0,0,2.25,2.45A7,7,0,0,0,298,228a55.14,55.14,0,0,0,7.53-4.16c1.24-.76,2.48-1.52,3.76-2.23a10.44,10.44,0,0,1,4.1-1.48,11.12,11.12,0,0,0-3.89,1.83c-1.21.79-2.39,1.64-3.57,2.49a46.8,46.8,0,0,1-7.46,4.66,8.18,8.18,0,0,1-4.6.88,4.47,4.47,0,0,1-3.46-3.48,8.07,8.07,0,0,1,.58-4.72,17.57,17.57,0,0,1,2.25-4l1.13,1.19a12.27,12.27,0,0,1-5.84,2.28,5.12,5.12,0,0,1-3.32-.9,5.72,5.72,0,0,1-2-2.73,7.71,7.71,0,0,1,.84-6.29,18.57,18.57,0,0,1,3.82-4.76l.81,1.24a7.29,7.29,0,0,1-6.16-.18,6.21,6.21,0,0,1-2.22-2.22,4.45,4.45,0,0,1-.5-3.1,10.71,10.71,0,0,1,3.06-5A25.57,25.57,0,0,1,287.33,193.64Z" style="fill:#263238"></path><path d="M265.57,211.58s9.68-39.75,23.36-28.35c4.07,3.38,16.72,22.14,13,24.76-4.81,3.37-11.55-3.47-15.1-8.44,0,0-1.39,14-11.41,15.92A10.16,10.16,0,0,1,265.57,211.58Z" style="fill:#f7a9a0"></path><path d="M287.74,182.35a21.34,21.34,0,0,1,4.67,4.13,46.07,46.07,0,0,1,3.85,4.94,72.84,72.84,0,0,1,6.25,10.87,12.23,12.23,0,0,1,1,3.19,4.46,4.46,0,0,1-.15,1.9,3.25,3.25,0,0,1-.46.94,3.33,3.33,0,0,1-.75.71,5.29,5.29,0,0,1-3.55.88,10.1,10.1,0,0,1-3.26-1,19.22,19.22,0,0,1-5.08-4,42.3,42.3,0,0,1-4-4.92l1.31-.36a25.81,25.81,0,0,1-1.09,4.67,22.91,22.91,0,0,1-1.94,4.35,16.21,16.21,0,0,1-3,3.71,12.33,12.33,0,0,1-4,2.48A14,14,0,0,0,281.2,212a17.11,17.11,0,0,0,2.53-3.78,22.31,22.31,0,0,0,1.6-4.26,23.9,23.9,0,0,0,.79-4.45l.13-1.85,1.18,1.49a45,45,0,0,0,4,4.61,18.25,18.25,0,0,0,4.68,3.6c1.67.84,3.72,1.22,5,.29,1.21-.72.62-2.92-.11-4.72a60.24,60.24,0,0,0-2.64-5.51c-1-1.83-1.94-3.64-3-5.39C293.15,188.56,290.93,185,287.74,182.35Z" style="fill:#263238"></path><path d="M259.48,215.66l28,37.15S242,288.64,230.25,285.32s-42.79-40.83-52.54-57.95.08-19,11.64-13,41,25.69,42.81,25S259.48,215.66,259.48,215.66Z" style="fill:#E9E9E9"></path><path d="M246,257.71a2,2,0,0,1-1,.48,1.94,1.94,0,0,1-1.83-.54,2.51,2.51,0,0,0-2.79-.51,2.83,2.83,0,0,0-1.05.92,10.54,10.54,0,0,0-.72,1.07,9.57,9.57,0,0,0,1.08-.71,2.05,2.05,0,0,1,1-.51,1.92,1.92,0,0,1,1.81.48,2.59,2.59,0,0,0,2.8.59,2.51,2.51,0,0,0,1.07-.89c.23-.36.51-.69.72-1.07C246.64,257.22,246.31,257.48,246,257.71ZM277.2,247a2.16,2.16,0,0,1-1,.48,1.87,1.87,0,0,1-1.8-.55,2.58,2.58,0,0,0-2.82-.49,2.5,2.5,0,0,0-1.05.92c-.23.36-.51.69-.72,1.07.39-.23.72-.48,1.08-.71a2,2,0,0,1,1-.51,1.92,1.92,0,0,1,1.84.46,2.5,2.5,0,0,0,3.87-.31c.23-.36.48-.69.69-1.07C277.89,246.56,277.56,246.82,277.2,247Zm-17.58-27.42a2.24,2.24,0,0,1-1,.48,1.87,1.87,0,0,1-1.8-.55,2.72,2.72,0,0,0-1-.59h0l-.89.81a1.83,1.83,0,0,1,1.2.52,2.52,2.52,0,0,0,2.77.58A2.56,2.56,0,0,0,260,220c.23-.36.48-.69.69-1.07C260.3,219.14,260,219.4,259.62,219.62ZM212,240.56a2.16,2.16,0,0,1-1,.48,1.87,1.87,0,0,1-1.8-.56,2.61,2.61,0,0,0-2.83-.48,2.47,2.47,0,0,0-1,.92c-.24.35-.51.69-.72,1.07.38-.23.72-.48,1.07-.72a2.06,2.06,0,0,1,1-.5,1.89,1.89,0,0,1,1.83.45,2.53,2.53,0,0,0,2.78.59,2.6,2.6,0,0,0,1.09-.89,11,11,0,0,0,.69-1.08C212.7,240.08,212.37,240.33,212,240.56ZM190,232.16a2.45,2.45,0,0,1-1,.48,1.89,1.89,0,0,1-1.81-.56,2.59,2.59,0,0,0-2.82-.48,2.42,2.42,0,0,0-1,.91c-.23.36-.51.69-.71,1.07.38-.23.71-.48,1.07-.71a2.15,2.15,0,0,1,1-.51,1.91,1.91,0,0,1,1.84.46,2.5,2.5,0,0,0,3.87-.31c.23-.35.48-.69.69-1.07C190.64,231.67,190.3,231.93,190,232.16Zm42.46,7.36c0-.07,0-.13,0-.2a.83.83,0,0,1-.2.11.61.61,0,0,1-.24,0s0,.05,0,.08a2.5,2.5,0,0,1-.34,1.07,1.88,1.88,0,0,1-1.62.94,2.54,2.54,0,0,0-2.37,1.58,2.06,2.06,0,0,0-.13,1.37c.08.44.13.84.23,1.25a9.87,9.87,0,0,0,.25-1.25,2.58,2.58,0,0,1,.36-1,1.91,1.91,0,0,1,1.68-.89,2.56,2.56,0,0,0,2.34-1.65A3,3,0,0,0,232.41,239.52ZM235,272.93c-.1-.41-.15-.81-.26-1.24a9.73,9.73,0,0,0-.25,1.24,2.55,2.55,0,0,1-.33,1.07,1.92,1.92,0,0,1-1.63.95,2.53,2.53,0,0,0-2.37,1.58,2,2,0,0,0-.12,1.37c.07.43.12.84.22,1.25a10.26,10.26,0,0,0,.26-1.25,2.34,2.34,0,0,1,.36-1,1.87,1.87,0,0,1,1.67-.89,2.62,2.62,0,0,0,2.35-1.65A3.12,3.12,0,0,0,235,272.93Zm19.46,1.86c-.12.43-.17.84-.25,1.24v0l.45-.27C254.63,275.46,254.58,275.13,254.49,274.79Zm1.94-36.39c-.1-.4-.15-.81-.25-1.24a10.09,10.09,0,0,0-.25,1.24,2.65,2.65,0,0,1-.33,1.08,1.91,1.91,0,0,1-1.63.94A2.53,2.53,0,0,0,251.6,242a2.11,2.11,0,0,0-.13,1.37c.08.43.13.84.23,1.25a12.58,12.58,0,0,0,.26-1.25,2.52,2.52,0,0,1,.35-1,1.92,1.92,0,0,1,1.68-.89,2.56,2.56,0,0,0,2.34-1.65A3,3,0,0,0,256.43,238.4ZM219.3,261.23a2.11,2.11,0,0,1-1-.36,1.88,1.88,0,0,1-.88-1.68,2.58,2.58,0,0,0-1.66-2.34,2.7,2.7,0,0,0-1.4-.08c-.41.08-.82.13-1.25.23a9.87,9.87,0,0,0,1.25.25,2.37,2.37,0,0,1,1.07.34,1.9,1.9,0,0,1,.94,1.62,2.55,2.55,0,0,0,1.55,2.37,2.42,2.42,0,0,0,1.41.15c.43-.1.84-.15,1.24-.25A8.25,8.25,0,0,0,219.3,261.23Zm47.92,2.5a2.3,2.3,0,0,1-1.05-.36,2,2,0,0,1-.89-1.67,2.51,2.51,0,0,0-3-2.43,10.5,10.5,0,0,0-1.24.26c.4.1.83.15,1.24.25a2.54,2.54,0,0,1,1.05.31,2,2,0,0,1,1,1.63,2.61,2.61,0,0,0,1.55,2.39,2.57,2.57,0,0,0,1.41.13,10.5,10.5,0,0,0,1.24-.26C268.06,263.86,267.63,263.81,267.22,263.73Zm-70.14-45h0l-.29.07c.21.05.4.08.6.11Zm5.92,4.27a2.47,2.47,0,0,1-1-.35,1.88,1.88,0,0,1-.89-1.5h0l-1.14-.68a1.6,1.6,0,0,1,.09.53,2.57,2.57,0,0,0,1.58,2.37,2.46,2.46,0,0,0,1.38.15c.43-.1.84-.15,1.24-.26A11.82,11.82,0,0,0,203,223.05Z" style="fill:#fff"></path><path d="M236.86,284.64c-2.71.85-5,1.14-6.61.68-11.72-3.33-42.79-40.83-52.54-57.95-5.62-9.86-4.74-14.65-.77-15.79Z" style="opacity:0.1"></path><path d="M252.22,223.63c4.54,5.49,8.91,11.13,13.23,16.8,2.12,2.78,10.1,14.2,12.41,17.43.09.13-.27.41-.37.29-2.37-2.81-11-14.12-13.05-16.94-4.22-5.75-8.4-11.53-12.39-17.45C252,223.66,252.14,223.54,252.22,223.63Z" style="fill:#263238"></path><path d="M218.29,326.78c-1.35,1.86-95.85,3.27-96.43,2.71-1.58-1.53,11.89-94.57,32.37-115,4.41-4.4,21.76-5.21,24.28-4.11,5.8,2.52,11.4,8.24,16.32,19.06C204.69,251.08,219.46,325.15,218.29,326.78Z" style="fill:#E9E9E9"></path><path d="M216.23,320a2.54,2.54,0,0,1-1,.49,2,2,0,0,1-1.83-.56,2.54,2.54,0,0,0-2.8-.48,2.31,2.31,0,0,0-1,.91,10.44,10.44,0,0,0-.71,1.07c.38-.23.71-.48,1.07-.71a2.39,2.39,0,0,1,1-.53,1.88,1.88,0,0,1,1.8.48,2.6,2.6,0,0,0,2.8.58,2.44,2.44,0,0,0,1.07-.89c.24-.36.51-.69.72-1.07C216.92,319.5,216.58,319.76,216.23,320Zm-30.79-15.59a2.46,2.46,0,0,1-1,.48,2,2,0,0,1-1.8-.56,2.53,2.53,0,0,0-2.84-.49,2.75,2.75,0,0,0-1,.92c-.23.34-.48.66-.71,1a10.33,10.33,0,0,0,1.07-.7,3.39,3.39,0,0,1,1-.52,2,2,0,0,1,1.84.49,2.57,2.57,0,0,0,2.78.58,2.49,2.49,0,0,0,1.09-.89,11.46,11.46,0,0,0,.68-1.07C186.13,303.88,185.8,304.13,185.44,304.39Zm-52.12,3.39a2,2,0,0,1-1,.48,1.92,1.92,0,0,1-1.82-.54,2.53,2.53,0,0,0-2.8-.51,2.83,2.83,0,0,0-1,.92,9.53,9.53,0,0,0-.72,1.07,8.45,8.45,0,0,0,1.08-.72,2.12,2.12,0,0,1,1-.5,1.92,1.92,0,0,1,1.81.48,2.62,2.62,0,0,0,2.8.59,2.65,2.65,0,0,0,1.07-.89c.23-.36.51-.69.72-1.07A11,11,0,0,0,133.32,307.78Zm16.13-69.42a2,2,0,0,1-1,.48,1.88,1.88,0,0,1-1.81-.56,2.61,2.61,0,0,0-2.83-.48,2.47,2.47,0,0,0-1,.92c-.23.35-.51.69-.72,1.07.38-.23.72-.49,1.07-.72a2.06,2.06,0,0,1,1-.5A1.89,1.89,0,0,1,146,239a2.53,2.53,0,0,0,2.78.59,2.6,2.6,0,0,0,1.09-.89,11,11,0,0,0,.69-1.08C150.14,237.88,149.81,238.13,149.45,238.36Zm9.42,26.29a2.11,2.11,0,0,1-1,.48,1.89,1.89,0,0,1-1.81-.56,2.59,2.59,0,0,0-2.82-.48,2.42,2.42,0,0,0-1.05.91c-.22.36-.51.69-.71,1.08.38-.24.71-.49,1.07-.72a2.13,2.13,0,0,1,1-.51,1.9,1.9,0,0,1,1.83.46,2.5,2.5,0,0,0,3.87-.31c.23-.35.48-.69.69-1.07C159.55,264.17,159.22,264.41,158.87,264.65ZM190,232.16a2.45,2.45,0,0,1-1,.48,1.89,1.89,0,0,1-1.81-.56,2.59,2.59,0,0,0-2.82-.48,2.42,2.42,0,0,0-1,.91c-.23.36-.51.69-.71,1.07.38-.23.71-.48,1.07-.71a2.15,2.15,0,0,1,1-.51,1.91,1.91,0,0,1,1.84.46,2.5,2.5,0,0,0,3.87-.31c.23-.35.48-.69.69-1.07C190.64,231.67,190.3,231.93,190,232.16ZM139,328.85a5.67,5.67,0,0,0-.15.69h.29C139.12,329.31,139.08,329.08,139,328.85Zm53.75-73c-.1-.41-.15-.82-.26-1.25a11.92,11.92,0,0,0-.24,1.25,2.5,2.5,0,0,1-.34,1.07,1.89,1.89,0,0,1-1.63.95,2.51,2.51,0,0,0-2.36,1.57,2.06,2.06,0,0,0-.13,1.37c.08.44.13.84.23,1.25a9.87,9.87,0,0,0,.25-1.25,2.58,2.58,0,0,1,.36-1,1.91,1.91,0,0,1,1.68-.89,2.56,2.56,0,0,0,2.34-1.65A3,3,0,0,0,192.77,255.81Zm-55.52-.27a12,12,0,0,0-.25-1.25c-.1.41-.16.81-.26,1.25a2.32,2.32,0,0,1-.31,1,1.93,1.93,0,0,1-1.32.92l-.3,1.07h0a2.62,2.62,0,0,0,2.34-1.66A2.49,2.49,0,0,0,137.25,255.54Zm18.27,31.23a8.64,8.64,0,0,0-.25-1.25c-.1.41-.16.82-.25,1.25a2.45,2.45,0,0,1-.31,1,1.87,1.87,0,0,1-1.63.94,2.5,2.5,0,0,0-2.52,3c.08.43.13.84.25,1.27a11.44,11.44,0,0,0,.26-1.27,2.15,2.15,0,0,1,.36-1,1.88,1.88,0,0,1,1.67-.89,2.62,2.62,0,0,0,2.35-1.65A2.43,2.43,0,0,0,155.52,286.77Zm9.94-73.35c-.09-.44-.14-.84-.24-1.25a12,12,0,0,0-.25,1.25,2.5,2.5,0,0,1-.33,1,1.89,1.89,0,0,1-1.63.95,2.59,2.59,0,0,0-2.37,1.58,2.42,2.42,0,0,0-.15,1.39c.1.41.15.82.26,1.25.12-.43.17-.84.25-1.25a2.21,2.21,0,0,1,.35-1,2,2,0,0,1,1.69-.89,2.53,2.53,0,0,0,2.33-1.66A2.5,2.5,0,0,0,165.46,213.42Zm43.16,63.11c-.24.16-.47.33-.72.48a2.72,2.72,0,0,1-1,.54,2,2,0,0,1-1.84-.49,2.59,2.59,0,0,0-2.77-.58,2.32,2.32,0,0,0-1.09.89c-.23.36-.49.69-.72,1.07.39-.23.72-.48,1.08-.71a2.35,2.35,0,0,1,1-.48,2,2,0,0,1,1.84.55,2.55,2.55,0,0,0,2.82.49,2.77,2.77,0,0,0,1-.92c.13-.21.28-.42.41-.62A1.74,1.74,0,0,0,208.62,276.53Zm-1,26.74a2,2,0,0,1-1-.36,1.91,1.91,0,0,1-.89-1.68,2.56,2.56,0,0,0-1.65-2.34,2.74,2.74,0,0,0-1.41-.08c-.4.08-.81.13-1.24.23a10.09,10.09,0,0,0,1.24.25,2.33,2.33,0,0,1,1.07.34,1.88,1.88,0,0,1,.94,1.63,2.56,2.56,0,0,0,1.56,2.36,2.3,2.3,0,0,0,1.4.15c.43-.1.84-.15,1.25-.25A8.64,8.64,0,0,0,207.62,303.27Zm-27.29-19.18a2.46,2.46,0,0,1-1-.33,1.89,1.89,0,0,1-.89-1.68,2.6,2.6,0,0,0-1.66-2.34,2.28,2.28,0,0,0-1.38-.1c-.43.1-.83.15-1.27.25a11.93,11.93,0,0,0,1.27.26,2.49,2.49,0,0,1,1.05.3,2,2,0,0,1,.94,1.63,2.59,2.59,0,0,0,1.58,2.39,2.45,2.45,0,0,0,1.38.13c.43-.08.84-.13,1.27-.25C181.17,284.24,180.76,284.19,180.33,284.09Zm-47.67-.2a2.66,2.66,0,0,1-1-.35,2,2,0,0,1-.89-1.69,2.54,2.54,0,0,0-1.12-2.06c-.07.36-.15.71-.23,1.07a1.71,1.71,0,0,1,.34,1,2.49,2.49,0,0,0,1.55,2.36,2.41,2.41,0,0,0,1.39.14c.41-.08.82-.14,1.25-.26C133.48,284,133.07,284,132.66,283.89Zm28,33.74a2.51,2.51,0,0,1-1-.35,1.93,1.93,0,0,1-.89-1.68,2.58,2.58,0,0,0-1.65-2.35,2.75,2.75,0,0,0-1.38-.1c-.44.1-.84.15-1.25.26a8.38,8.38,0,0,0,1.25.25,2.17,2.17,0,0,1,1,.33,2,2,0,0,1,1,1.63,2.5,2.5,0,0,0,1.55,2.37,2.32,2.32,0,0,0,1.39.13,10,10,0,0,0,1.25-.26C161.49,317.76,161.08,317.71,160.67,317.63Zm26.83,10.62a2,2,0,0,1-.89-1.69,2.54,2.54,0,0,0-1.66-2.34,2.58,2.58,0,0,0-1.37-.08c-.4.08-.84.13-1.24.23a9.08,9.08,0,0,0,1.24.25,2.55,2.55,0,0,1,1,.34,1.92,1.92,0,0,1,1,1.62,2.56,2.56,0,0,0,1,2.05l1.79-.06A2.27,2.27,0,0,1,187.5,328.25ZM170.28,248.3a2.43,2.43,0,0,1-1-.36,1.88,1.88,0,0,1-.88-1.68,2.49,2.49,0,0,0-3-2.42,11.44,11.44,0,0,0-1.27.26c.43.1.84.15,1.27.23a2.65,2.65,0,0,1,1,.32,2,2,0,0,1,.94,1.64,2.57,2.57,0,0,0,1.58,2.37,2.46,2.46,0,0,0,1.38.15c.43-.1.84-.15,1.24-.26A11.82,11.82,0,0,0,170.28,248.3Z" style="fill:#fff"></path><path d="M145.32,219.27c-28.81,23.66-45.21,52.61-47.32,59.61C92.61,296.79,87.57,319,87.52,332.44c0,5,44,10.2,44.18,4.89.58-16.66,1.79-52.17,1.92-52.81.9-4.44,14.56-30.38,23.92-51.77S157.45,209.32,145.32,219.27Z" style="fill:#f7a9a0"></path><path d="M131.67,328.71s-.12,20.9.92,32.44c.58,6.44.6,17.57-1.14,22.5-2.59,7.37-18.16,36.53-25.31,32.91-6.48-3.28,10.08-26.64,10.08-26.64S101.6,415,94.53,409.59s15.14-29.29,15.14-29.29-15.6,25.4-22,18.7c-4.85-5.07,14-27.85,14-27.85s-13.56,21.74-18.77,16.74c-5.75-5.52,10.37-27.64,10.37-27.64-11.1-14.92-6-30.69-4.38-38.91C89.31,319.35,131.67,328.71,131.67,328.71Z" style="fill:#f7a9a0"></path><path d="M121,383.07c-5.89,11.26-14.44,21.17-18.56,24.57-.5.41-1,.77-.93.73C105.74,403,119,385.84,120.87,383,120.92,382.92,121,383,121,383.07Z" style="fill:#263238"></path><path d="M111.66,374.64C108.43,383.8,100,392.7,97.4,396.16c-.2.27-.27.07-.08-.2,2.48-3.56,12-17.72,14.25-21.38C111.61,374.52,111.68,374.57,111.66,374.64Z" style="fill:#263238"></path><path d="M103.41,368a45.1,45.1,0,0,1-10.93,15.41c-.24.23-.29,0-.09-.28,3.94-5.36,6.47-8.61,10.82-15.24C103.28,367.82,103.47,367.9,103.41,368Z" style="fill:#263238"></path><path d="M86.3,328.5l48.39,11.06s-1-51.86-.3-54.74,21.65-42.56,26.36-59.94-8.1-12.26-15.08-6.84-40.24,38.18-47.22,55.48S86.3,328.5,86.3,328.5Z" style="fill:#E9E9E9"></path><path d="M107.86,276.2a2,2,0,0,1-2.8-.05,2.51,2.51,0,0,0-2.8-.51,2.81,2.81,0,0,0-1.05.91,9,9,0,0,0-.71,1.07,9,9,0,0,0,1.07-.71,2.25,2.25,0,0,1,1-.51,1.92,1.92,0,0,1,1.81.49,2.6,2.6,0,0,0,2.8.58,2.56,2.56,0,0,0,1.07-.88c.23-.36.51-.69.72-1.08C108.55,275.71,108.21,276,107.86,276.2Zm26.36,31c-.32.18-.6.39-.9.59a2,2,0,0,1-1,.48,1.92,1.92,0,0,1-1.82-.54,2.53,2.53,0,0,0-2.8-.51,2.83,2.83,0,0,0-1,.92,9.53,9.53,0,0,0-.72,1.07,8.45,8.45,0,0,0,1.08-.72,2.12,2.12,0,0,1,1-.5,1.92,1.92,0,0,1,1.81.48,2.62,2.62,0,0,0,2.8.59,2.65,2.65,0,0,0,1.07-.89c.17-.27.37-.52.55-.78h0A1.09,1.09,0,0,0,134.22,307.19Zm15.23-68.83a2,2,0,0,1-1,.48,1.88,1.88,0,0,1-1.81-.56,2.61,2.61,0,0,0-2.83-.48,2.47,2.47,0,0,0-1,.92c-.23.35-.51.69-.72,1.07.38-.23.72-.49,1.07-.72a2.06,2.06,0,0,1,1-.5A1.89,1.89,0,0,1,146,239a2.53,2.53,0,0,0,2.78.59,2.6,2.6,0,0,0,1.09-.89,11,11,0,0,0,.69-1.08C150.14,237.88,149.81,238.13,149.45,238.36Zm-14.86,95a1.55,1.55,0,0,0-.14.29,2.48,2.48,0,0,0-.14,1.41c0,.06,0,.14.05.2h.26Q134.59,334.39,134.59,333.37ZM94.73,309.42a8.25,8.25,0,0,0-.25-1.24c-.09.4-.15.81-.25,1.24a2.5,2.5,0,0,1-.31,1.05,1.91,1.91,0,0,1-1.63.94,2.5,2.5,0,0,0-2.52,3c.08.43.13.84.25,1.27a8.18,8.18,0,0,0,.26-1.27,2.19,2.19,0,0,1,.36-1,1.88,1.88,0,0,1,1.68-.88,2.62,2.62,0,0,0,2.34-1.66A2.43,2.43,0,0,0,94.73,309.42Zm19.4-14.35a8.25,8.25,0,0,0-.25-1.24c-.1.4-.16.81-.26,1.24a2.54,2.54,0,0,1-.3,1.05,1.91,1.91,0,0,1-1.63.94,2.5,2.5,0,0,0-2.52,3c.08.43.13.83.25,1.27a11.93,11.93,0,0,0,.26-1.27,2.19,2.19,0,0,1,.36-1,1.89,1.89,0,0,1,1.67-.89,2.61,2.61,0,0,0,2.35-1.65A2.52,2.52,0,0,0,114.13,295.07Zm23.12-39.53a12,12,0,0,0-.25-1.25c-.1.41-.16.81-.26,1.25a2.32,2.32,0,0,1-.31,1,1.88,1.88,0,0,1-1.63.94,2.48,2.48,0,0,0-2.51,3,9.5,9.5,0,0,0,.25,1.27,9.5,9.5,0,0,0,.25-1.27,2.11,2.11,0,0,1,.36-1,1.89,1.89,0,0,1,1.68-.89,2.62,2.62,0,0,0,2.34-1.66A2.49,2.49,0,0,0,137.25,255.54Zm-13.57-16a2,2,0,0,0,0,.24,2.74,2.74,0,0,0,.09-.39Zm2.8-3a2.57,2.57,0,0,0,1.88-1.6,1.6,1.6,0,0,0,.11-.48Zm35-20.62a2.34,2.34,0,0,0-.8,1,2.42,2.42,0,0,0-.15,1.39c.1.41.15.82.26,1.25.12-.43.17-.84.25-1.25a2.21,2.21,0,0,1,.35-1,2.25,2.25,0,0,1,.31-.37A7,7,0,0,0,161.44,216ZM116.27,324.84a2.61,2.61,0,0,1-1-.35,2,2,0,0,1-.89-1.69,2.53,2.53,0,0,0-3-2.44c-.43.1-.83.15-1.24.25a8.51,8.51,0,0,0,1.24.25,2.25,2.25,0,0,1,1,.34,1.92,1.92,0,0,1,1,1.62,2.52,2.52,0,0,0,1.56,2.37,2.41,2.41,0,0,0,1.39.14c.41-.08.82-.14,1.25-.26C117.09,325,116.68,324.92,116.27,324.84Zm0-66.13a2.46,2.46,0,0,1-1-.35,2,2,0,0,1-.89-1.69,2.56,2.56,0,0,0-1.66-2.34,2.74,2.74,0,0,0-1.38-.1l-.4.08-.24.32.64.11a2.25,2.25,0,0,1,1,.33,1.94,1.94,0,0,1,1,1.63,2.53,2.53,0,0,0,1.56,2.37,2.32,2.32,0,0,0,1.39.13,10,10,0,0,0,1.25-.26C117.09,258.84,116.68,258.79,116.27,258.71Zm30.55-39.35a2.51,2.51,0,0,1-1-.35,2.07,2.07,0,0,1-.59-.59l-.72.6a2.24,2.24,0,0,0,1,.7,2.32,2.32,0,0,0,1.39.13,12,12,0,0,0,1.25-.25C147.64,219.5,147.23,219.45,146.82,219.36Zm-14.16,64.53a2.66,2.66,0,0,1-1-.35,2,2,0,0,1-.89-1.69,2.51,2.51,0,0,0-3-2.44c-.44.1-.84.15-1.25.26a12,12,0,0,0,1.25.25,2.17,2.17,0,0,1,1,.33,2,2,0,0,1,1,1.63,2.49,2.49,0,0,0,1.55,2.36,2.41,2.41,0,0,0,1.39.14c.41-.08.82-.14,1.25-.26C133.48,284,133.07,284,132.66,283.89Z" style="fill:#fff"></path><path d="M90.21,317.91c7,1.23,14,2.68,21,4.19,3.42.74,16.9,4.25,20.75,5.21.15,0,.06.48-.09.46-3.63-.6-17.52-3.62-20.92-4.42-6.94-1.63-13.87-3.32-20.75-5.23A.11.11,0,0,1,90.21,317.91Z" style="fill:#263238"></path><path d="M134.52,329.62c-.22-3.85-.34-7.69-.51-11.53l-.32-11.53c-.11-3.85-.13-7.69-.18-11.54v-5.78c0-1,0-1.92.05-2.9,0-.47.05-1,.08-1.5a6.69,6.69,0,0,1,.51-1.55c3.1-7.1,6.45-14,9.85-20.9l5.15-10.33c1.76-3.41,3.49-6.85,5.31-10.24-1.52,3.54-3.11,7-4.66,10.56L145,262.88l-4.79,10.48c-1.59,3.5-3.23,7-4.7,10.5a6.6,6.6,0,0,0-.41,1.16c0,.45-.07.89-.08,1.38,0,1-.05,1.9-.07,2.86l0,5.76-.08,11.53-.11,11.53C134.67,321.92,134.64,325.77,134.52,329.62Z" style="fill:#263238"></path><path d="M149.06,252.83a21.83,21.83,0,0,1,4.4-4.86,20.46,20.46,0,0,1-2,2.6A19.7,19.7,0,0,1,149.06,252.83Z" style="fill:#263238"></path><path d="M184,211.64c5.27,5.47,6.82,20.29-3.54,21.73s-20-8.68-23.75-15.37,4.46-11.6,13.12-11.61S181.27,208.85,184,211.64Z" style="fill:#E9E9E9"></path><path d="M184,211.64c5.27,5.47,6.82,20.29-3.54,21.73s-20-8.68-23.75-15.37,4.46-11.6,13.12-11.61S181.27,208.85,184,211.64Z" style="opacity:0.1"></path><path d="M181.05,228.1c-5.54,2.08-16.46-5.41-21.24-12-.32-.45-.23-5.66-.42-12-.13-3.85-.36-8.12-.86-12-.1-.8,25.14,2.81,25.14,2.81s-1.36,8.46-.46,15.23a9.24,9.24,0,0,0,.38,1.57c0,.07,0,.16.06.26C184.53,215,186.41,226.08,181.05,228.1Z" style="fill:#f7a9a0"></path><path d="M160,192c2,6.43,8.09,21.78,21.13,20.42a16.67,16.67,0,0,0,2.48-.45,1.5,1.5,0,0,0-.07-.27,9,9,0,0,1-.37-1.57c-.91-6.78.46-15.23.46-15.23S165.46,192.31,160,192Z" style="fill:#263238"></path><path d="M154.1,161c-2.31,8.88,3.39,34,9.87,39.41,9.38,7.81,24.22,8,30.72-3.2,6.3-10.82-1.7-43.45-8.89-48.29C175.22,141.76,157.51,147.85,154.1,161Z" style="fill:#f7a9a0"></path><path d="M184.45,187.3a7,7,0,0,1-2.31,2.69,3.14,3.14,0,0,1-1.85.5c-1.43-.08-1.71-1.31-1.68-2.43a7.53,7.53,0,0,1,.27-1.75A9,9,0,0,0,184.45,187.3Z" style="fill:#fff"></path><path d="M182.88,189.43a.8.8,0,0,1-.17.15,5.48,5.48,0,0,1-1.19-.25C182,189.36,182.43,189.41,182.88,189.43Z" style="fill:#dbdbdb"></path><path d="M180.08,188.83a3.51,3.51,0,0,1-.64-.24,4.76,4.76,0,0,1-.57-.34l-.26-.21v-.23C179.08,188.16,179.57,188.48,180.08,188.83Z" style="fill:#dbdbdb"></path><path d="M171.86,172.35a21.29,21.29,0,0,0,2.26-.37,3.73,3.73,0,0,0,2.24-.83,1.17,1.17,0,0,0,.06-1.44,2.93,2.93,0,0,0-2.86-.81,4.31,4.31,0,0,0-2.76,1.41A1.25,1.25,0,0,0,171.86,172.35Z" style="fill:#263238"></path><path d="M189.52,168.67a21.94,21.94,0,0,1-2.29-.11,3.72,3.72,0,0,1-2.31-.57,1.18,1.18,0,0,1-.23-1.43,3,3,0,0,1,2.75-1.13,4.33,4.33,0,0,1,2.91,1.09A1.26,1.26,0,0,1,189.52,168.67Z" style="fill:#263238"></path><path d="M177.58,191.21c.36.46.68,1.07,1.3,1.22a4.7,4.7,0,0,0,1.9-.16.06.06,0,0,1,.06.1,2.34,2.34,0,0,1-2.31.61,1.85,1.85,0,0,1-1.12-1.72C177.4,191.16,177.53,191.14,177.58,191.21Z" style="fill:#263238"></path><path d="M178.88,186.36a5.91,5.91,0,0,0,4.38,1.78,7.93,7.93,0,0,0,2.1-.33l.39-.13.36-.13a.44.44,0,0,0,.26-.45v0a1.15,1.15,0,0,0-.06-.17h0l0-.15c-.24-1.31-.77-3.27-.77-3.27.53.14,3.19.73,3,.06-1.5-5.58-3.16-11.79-5.83-17a.16.16,0,0,0-.3.11c1.22,5.42,3.39,10.59,4.71,16a9.9,9.9,0,0,0-2.89-.27c-.18.09,1.1,3.77,1.15,4.37a.09.09,0,0,1,0,.06c-2.13.73-3.92.41-6.36-.63C178.86,186.1,178.75,186.24,178.88,186.36Z" style="fill:#263238"></path><path d="M178.26,177.21s-.18.06-.16.1c.4,1,.44,2.11-1.69,2.5-.06,0,0,.06,0,.05C179.13,179.64,179,178.13,178.26,177.21Z" style="fill:#263238"></path><path d="M175.72,176.24c-1.33,0-2.42.52-2.46,1.38s.9,1.5,2.61,1.47C179.57,179,179.12,176.27,175.72,176.24Z" style="fill:#263238"></path><path d="M178.66,178a53,53,0,0,1-7.48-.52A6.56,6.56,0,0,1,176,176,3,3,0,0,1,178.66,178Z" style="fill:#263238"></path><path d="M187.62,175.32s.15,0,.15,0c.1,1.06.52,2.14,2.23,1.78.06,0,.06,0,0,.06C188,177.89,187.42,176.44,187.62,175.32Z" style="fill:#263238"></path><path d="M189.08,173.55c1.48-.66,2.25-.33,2.56.2s0,1.79-1.53,2.54C187.44,177.61,186.58,174.65,189.08,173.55Z" style="fill:#263238"></path><path d="M187.64,176.2a33.74,33.74,0,0,0,5.22-3.09,4.54,4.54,0,0,0-4.09.27A2.82,2.82,0,0,0,187.64,176.2Z" style="fill:#263238"></path><path d="M157.51,183.71s-8.83-14.2-8.13-22.48c.32-3.74,5.39-6.32,5.39-6.32a8.43,8.43,0,0,1,2.56-8.52c4.37-4.22,15.08-3.41,15.08-3.41s6.82-10.11,16.68-6.25,3.6,15.06,3.6,15.06,3.67,5.07-5.08,9.17c-8.52,4-26.08.37-26.08.37a61.16,61.16,0,0,1-.05,18.14A5.58,5.58,0,0,1,157.51,183.71Z" style="fill:#263238"></path><path d="M174.11,143.09a17.35,17.35,0,0,0-6.92-1.18A18.75,18.75,0,0,0,161,143c-3.51,1.31-6.62,3.95-7.17,7.83a7.23,7.23,0,0,0,1.44,5.42c.05.06.14,0,.09-.09-2.31-2.78-1.16-7.17,1.15-9.55,2.62-2.69,6.67-3.75,10.31-3.95a30.47,30.47,0,0,1,7.25.68A.11.11,0,0,0,174.11,143.09Z" style="fill:#263238"></path><path d="M196.17,141.38a8.42,8.42,0,0,0-5.88-5.29,14.37,14.37,0,0,0-9.29.44,18.08,18.08,0,0,0-7.53,5.72c0,.06.05.14.1.08,3.64-4.41,9.38-7,15.1-5.82,2.56.5,5.13,1.79,6.34,4.21a8.65,8.65,0,0,1-.13,7.29,16.14,16.14,0,0,1-6.24,6.4.06.06,0,0,0,.06.1,16.68,16.68,0,0,0,6.22-5.45A9.41,9.41,0,0,0,196.17,141.38Z" style="fill:#263238"></path><path d="M189.74,161.4a29.53,29.53,0,0,1-12.32,2.28,60,60,0,0,1-13-1.62c-2.49-.57-4.95-1.23-7.4-1.94a.06.06,0,0,0,0,.12,66.16,66.16,0,0,0,13.34,3.95,33.37,33.37,0,0,0,12.83-.27,28.45,28.45,0,0,0,6.64-2.44A0,0,0,1,0,189.74,161.4Z" style="fill:#263238"></path><path d="M161.39,182.11s-6.71-7.42-10.14-4.92,2.32,13.74,6.86,14.81a4.44,4.44,0,0,0,5.61-3.11Z" style="fill:#f7a9a0"></path><path d="M153,180.37c-.07,0-.07.1,0,.12,3.19.85,5.15,3.46,6.64,6.24-1.05-1-2.36-1.47-3.73-.2-.07.06,0,.18.1.15a2.75,2.75,0,0,1,3.11.57,13.43,13.43,0,0,1,1.73,2.23c.18.26.65.05.51-.25a.43.43,0,0,1,0-.07C160.88,185.28,157.19,180.24,153,180.37Z" style="fill:#263238"></path></g><g id="freepik--Texts--inject-204"><path d="M286.74,347.63a11.55,11.55,0,0,0,2.66,1.25,12.64,12.64,0,0,0,4.3.68,7.55,7.55,0,0,0,3.8-.82,5.22,5.22,0,0,0,2.15-2.52,13.76,13.76,0,0,0,1-4.22q.22-2.52.23-5.92V315.64h7.81v20.44a66.34,66.34,0,0,1-.48,8.35,16.73,16.73,0,0,1-2,6.43,10.52,10.52,0,0,1-4.5,4.14,17.89,17.89,0,0,1-7.93,1.47A15,15,0,0,1,285,354Z" style="fill:#E9E9E9"></path><path d="M327.17,315.64h6.91l15.29,40.21h-8l-3.74-10h-14l-3.68,10h-8Zm9,24.69-5.55-15.8-5.78,15.8Z" style="fill:#E9E9E9"></path><path d="M353.79,355.85V315.64h17A11.36,11.36,0,0,1,376,316.8a13.06,13.06,0,0,1,4.05,3.06,14.42,14.42,0,0,1,2.66,4.3,13,13,0,0,1,1,4.84,14.08,14.08,0,0,1-.9,5,13.93,13.93,0,0,1-2.55,4.27,12.44,12.44,0,0,1-4,3,11.35,11.35,0,0,1-5.09,1.14H361.6v13.48Zm7.81-20.34h9.06a4.47,4.47,0,0,0,3.6-1.75,7.29,7.29,0,0,0,1.45-4.76,7.83,7.83,0,0,0-.46-2.74,6.61,6.61,0,0,0-1.19-2.07,4.76,4.76,0,0,0-1.72-1.28,5.18,5.18,0,0,0-2-.42H361.6Z" style="fill:#E9E9E9"></path><path d="M398,315.64h6.91l15.29,40.21h-8l-3.74-10h-14l-3.69,10h-8Zm9,24.69-5.55-15.8-5.77,15.8Z" style="fill:#E9E9E9"></path><path d="M432.39,330.08v25.77h-7.81V315.64h6.06L451.59,342V315.69h7.81v40.16h-6.34Z" style="fill:#E9E9E9"></path><path d="M237.82,370.17v11.6h-1.4v-14.2h1.08l9.4,11.82v-11.8h1.4v14.18h-1.22Z" style="fill:#263238"></path><path d="M256.26,367.57h1.18l5.9,14.2h-1.48L260,377.33h-6.38l-1.82,4.44h-1.5Zm3.44,8.66-2.86-7-2.9,7Z" style="fill:#263238"></path><path d="M274.06,368.81H269v13h-1.4v-13h-5.06v-1.24h11.52Z" style="fill:#263238"></path><path d="M276.18,381.77v-14.2h1.4v14.2Z" style="fill:#263238"></path><path d="M286.86,381.87a6,6,0,0,1-2.71-.61,6.88,6.88,0,0,1-2.11-1.62,7.23,7.23,0,0,1-1.36-2.31,7.62,7.62,0,0,1-.48-2.66,7.38,7.38,0,0,1,.51-2.72,7.5,7.5,0,0,1,1.41-2.3,6.91,6.91,0,0,1,2.12-1.59,6,6,0,0,1,2.64-.59,5.85,5.85,0,0,1,2.71.63,6.81,6.81,0,0,1,2.1,1.65,7.63,7.63,0,0,1,1.35,2.31,7.5,7.5,0,0,1,.48,2.63,7.38,7.38,0,0,1-.51,2.72,7.5,7.5,0,0,1-1.4,2.29,6.72,6.72,0,0,1-2.11,1.58A6,6,0,0,1,286.86,381.87Zm-5.26-7.2a6.65,6.65,0,0,0,.38,2.23,5.83,5.83,0,0,0,1.08,1.9,5.45,5.45,0,0,0,1.66,1.32,4.59,4.59,0,0,0,2.14.49,4.53,4.53,0,0,0,2.18-.52,5.23,5.23,0,0,0,1.66-1.36,6.54,6.54,0,0,0,1.42-4.06,6.5,6.5,0,0,0-.39-2.23,6.11,6.11,0,0,0-1.09-1.89,5.41,5.41,0,0,0-1.66-1.31,4.69,4.69,0,0,0-2.12-.49,4.64,4.64,0,0,0-2.18.51,5.2,5.2,0,0,0-1.66,1.35,6.39,6.39,0,0,0-1,1.9A6.46,6.46,0,0,0,281.6,374.67Z" style="fill:#263238"></path><path d="M297.56,370.17v11.6h-1.4v-14.2h1.08l9.4,11.82v-11.8H308v14.18h-1.22Z" style="fill:#263238"></path><path d="M316,367.57h1.18l5.9,14.2H321.6l-1.84-4.44h-6.38l-1.82,4.44h-1.5Zm3.44,8.66-2.86-7-2.9,7Z" style="fill:#263238"></path><path d="M325.12,381.77v-14.2h1.4v13h8.2v1.24Z" style="fill:#263238"></path><path d="M341.34,381.77v-14.2h9.32v1.24h-7.92V374h6.68v1.16h-6.68v6.58Z" style="fill:#263238"></path><path d="M358.52,381.87a6,6,0,0,1-2.71-.61,6.88,6.88,0,0,1-2.11-1.62,7.23,7.23,0,0,1-1.36-2.31,7.62,7.62,0,0,1-.48-2.66,7.38,7.38,0,0,1,.51-2.72,7.5,7.5,0,0,1,1.41-2.3,6.91,6.91,0,0,1,2.12-1.59,6,6,0,0,1,2.64-.59,5.85,5.85,0,0,1,2.71.63,6.81,6.81,0,0,1,2.1,1.65,7.63,7.63,0,0,1,1.35,2.31,7.5,7.5,0,0,1,.48,2.63,7.38,7.38,0,0,1-.51,2.72,7.5,7.5,0,0,1-1.4,2.29,6.72,6.72,0,0,1-2.11,1.58A6,6,0,0,1,358.52,381.87Zm-5.26-7.2a6.65,6.65,0,0,0,.38,2.23,5.83,5.83,0,0,0,1.08,1.9,5.45,5.45,0,0,0,1.66,1.32,4.59,4.59,0,0,0,2.14.49,4.53,4.53,0,0,0,2.18-.52,5.23,5.23,0,0,0,1.66-1.36,6.54,6.54,0,0,0,1.42-4.06,6.5,6.5,0,0,0-.39-2.23,6.11,6.11,0,0,0-1.09-1.89,5.41,5.41,0,0,0-1.66-1.31,4.69,4.69,0,0,0-2.12-.49,4.64,4.64,0,0,0-2.18.51,5.2,5.2,0,0,0-1.66,1.35,6.39,6.39,0,0,0-1.05,1.9A6.46,6.46,0,0,0,353.26,374.67Z" style="fill:#263238"></path><path d="M373.58,380.61a4.43,4.43,0,0,0,2.23-.51,4.06,4.06,0,0,0,1.42-1.34,5.45,5.45,0,0,0,.74-1.89,10.94,10.94,0,0,0,.21-2.14v-7.16h1.4v7.16a11.47,11.47,0,0,1-.32,2.73,6.46,6.46,0,0,1-1,2.27,5,5,0,0,1-1.85,1.56,6,6,0,0,1-2.78.58,6,6,0,0,1-2.83-.61,5.17,5.17,0,0,1-1.85-1.61,6.44,6.44,0,0,1-1-2.28,11.49,11.49,0,0,1-.3-2.64v-7.16H369v7.16a10.47,10.47,0,0,0,.22,2.18,5.53,5.53,0,0,0,.75,1.88,3.89,3.89,0,0,0,1.41,1.32A4.34,4.34,0,0,0,373.58,380.61Z" style="fill:#263238"></path><path d="M384.32,370.17v11.6h-1.4v-14.2H384l9.4,11.82v-11.8h1.4v14.18h-1.22Z" style="fill:#263238"></path><path d="M398.36,381.77v-14.2h4.82a7.39,7.39,0,0,1,3,.56,6,6,0,0,1,2.12,1.52,6.41,6.41,0,0,1,1.28,2.25,8.56,8.56,0,0,1,.43,2.75,8.45,8.45,0,0,1-.48,2.93,6.44,6.44,0,0,1-1.37,2.24,6.12,6.12,0,0,1-2.14,1.44,7.37,7.37,0,0,1-2.81.51Zm10.22-7.12a7.33,7.33,0,0,0-.36-2.35,5.34,5.34,0,0,0-1.05-1.85,4.71,4.71,0,0,0-1.69-1.21,5.72,5.72,0,0,0-2.3-.43h-3.42v11.72h3.42a5.66,5.66,0,0,0,2.33-.45,4.7,4.7,0,0,0,1.69-1.24,5.35,5.35,0,0,0,1-1.86A7.54,7.54,0,0,0,408.58,374.65Z" style="fill:#263238"></path><path d="M416.56,367.57h1.18l5.9,14.2h-1.48l-1.84-4.44h-6.38l-1.82,4.44h-1.5Zm3.44,8.66-2.86-7-2.9,7Z" style="fill:#263238"></path><path d="M434.36,368.81H429.3v13h-1.4v-13h-5.06v-1.24h11.52Z" style="fill:#263238"></path><path d="M436.48,381.77v-14.2h1.4v14.2Z" style="fill:#263238"></path><path d="M447.16,381.87a6,6,0,0,1-2.71-.61,6.88,6.88,0,0,1-2.11-1.62,7.23,7.23,0,0,1-1.36-2.31,7.62,7.62,0,0,1-.48-2.66A7.38,7.38,0,0,1,441,372a7.5,7.5,0,0,1,1.41-2.3,6.91,6.91,0,0,1,2.12-1.59,6,6,0,0,1,2.64-.59,5.85,5.85,0,0,1,2.71.63,6.81,6.81,0,0,1,2.1,1.65,7.63,7.63,0,0,1,1.35,2.31,7.5,7.5,0,0,1,.48,2.63,7.38,7.38,0,0,1-.51,2.72,7.5,7.5,0,0,1-1.4,2.29,6.72,6.72,0,0,1-2.11,1.58A6,6,0,0,1,447.16,381.87Zm-5.26-7.2a6.65,6.65,0,0,0,.38,2.23,5.83,5.83,0,0,0,1.08,1.9,5.45,5.45,0,0,0,1.66,1.32,4.59,4.59,0,0,0,2.14.49,4.53,4.53,0,0,0,2.18-.52,5.23,5.23,0,0,0,1.66-1.36,6.54,6.54,0,0,0,1.42-4.06,6.5,6.5,0,0,0-.39-2.23,6.11,6.11,0,0,0-1.09-1.89,5.41,5.41,0,0,0-1.66-1.31,4.69,4.69,0,0,0-2.12-.49,4.64,4.64,0,0,0-2.18.51,5.2,5.2,0,0,0-1.66,1.35,6.39,6.39,0,0,0-1.05,1.9A6.46,6.46,0,0,0,441.9,374.67Z" style="fill:#263238"></path><path d="M457.86,370.17v11.6h-1.4v-14.2h1.08l9.4,11.82v-11.8h1.4v14.18h-1.22Z" style="fill:#263238"></path><path d="M477,381.77v-14.2h4.82a7.39,7.39,0,0,1,3,.56,6,6,0,0,1,2.12,1.52,6.41,6.41,0,0,1,1.28,2.25,8.56,8.56,0,0,1,.43,2.75,8.45,8.45,0,0,1-.48,2.93,6.44,6.44,0,0,1-1.37,2.24,6.12,6.12,0,0,1-2.14,1.44,7.4,7.4,0,0,1-2.81.51Zm10.22-7.12a7.33,7.33,0,0,0-.36-2.35,5.34,5.34,0,0,0-1.05-1.85,4.71,4.71,0,0,0-1.69-1.21,5.72,5.72,0,0,0-2.3-.43H478.4v11.72h3.42a5.66,5.66,0,0,0,2.33-.45,4.7,4.7,0,0,0,1.69-1.24,5.35,5.35,0,0,0,1-1.86A7.54,7.54,0,0,0,487.22,374.65Z" style="fill:#263238"></path><path d="M495.2,367.57h1.18l5.9,14.2H500.8L499,377.33h-6.38l-1.82,4.44h-1.5Zm3.44,8.66-2.86-7-2.9,7Z" style="fill:#263238"></path><path d="M502.74,367.57l4.64,7.64,4.68-7.64h1.52l-5.5,8.92v5.28h-1.4v-5.32l-5.48-8.88Z" style="fill:#263238"></path></g><g id="freepik--Table--inject-204"><polygon points="680.52 435 604.14 435.24 527.76 435.33 375 435.5 222.24 435.33 145.86 435.24 69.48 435 145.86 434.75 222.24 434.67 375 434.5 527.76 434.67 604.14 434.76 680.52 435" style="fill:#263238"></polygon></g></svg>